<?xml version="1.0" encoding="UTF-8" standalone="no"?><svg xmlns="http://www.w3.org/2000/svg" xmlns:xlink="http://www.w3.org/1999/xlink" clip-rule="evenodd" stroke-miterlimit="4.00" viewBox="0 0 1920 1080"><desc>SVG generated by Keynote</desc><defs></defs><g transform="matrix(1.00, 0.00, -0.00, -1.00, 0.0, 1080.0)"><path d="M 0.0 1080.0 L 1920.0 1080.0 L 1920.0 0.0 L 0.0 0.0 Z M 0.0 1080.0 " fill="#FEFFFE"></path><text xml:space="preserve" font-family="HelveticaNeue-Light" font-size="100.0" fill="#000000" transform="matrix(1.00, 0.00, -0.00, -1.00, 253.0, 502.0)">m</text><text xml:space="preserve" font-family="HelveticaNeue-Light" font-size="100.0" fill="#000000" transform="matrix(1.00, 0.00, -0.00, -1.00, 336.3, 502.0)">y</text><text xml:space="preserve" font-family="HelveticaNeue-Light" font-size="100.0" fill="#000000" transform="matrix(1.00, 0.00, -0.00, -1.00, 382.6, 502.0)"> </text><text xml:space="preserve" font-family="HelveticaNeue-Light" font-size="100.0" fill="#000000" transform="matrix(1.00, 0.00, -0.00, -1.00, 410.4, 502.0)">l</text><text xml:space="preserve" font-family="HelveticaNeue-Light" font-size="100.0" fill="#000000" transform="matrix(1.00, 0.00, -0.00, -1.00, 428.9, 502.0)">i</text><text xml:space="preserve" font-family="HelveticaNeue-Light" font-size="100.0" fill="#000000" transform="matrix(1.00, 0.00, -0.00, -1.00, 447.4, 502.0)">e</text><text xml:space="preserve" font-family="HelveticaNeue-Light" font-size="100.0" fill="#000000" transform="matrix(1.00, 0.00, -0.00, -1.00, 499.3, 502.0)">s</text><text xml:space="preserve" font-family="HelveticaNeue-Light" font-size="90.0" fill="#000000" transform="matrix(1.00, 0.00, -0.00, -1.00, 952.0, 666.0)">I</text><text xml:space="preserve" font-family="HelveticaNeue-Light" font-size="90.0" fill="#000000" transform="matrix(1.00, 0.00, -0.00, -1.00, 972.0, 666.0)"> </text><text xml:space="preserve" font-family="HelveticaNeue-Light" font-size="90.0" fill="#000000" transform="matrix(1.00, 0.00, -0.00, -1.00, 997.0, 666.0)">a</text><text xml:space="preserve" font-family="HelveticaNeue-Light" font-size="90.0" fill="#000000" transform="matrix(1.00, 0.00, -0.00, -1.00, 1043.7, 666.0)">m</text><text xml:space="preserve" font-family="HelveticaNeue-Light" font-size="90.0" fill="#000000" transform="matrix(1.00, 0.00, -0.00, -1.00, 1118.7, 666.0)"> </text><text xml:space="preserve" font-family="HelveticaNeue-Light" font-size="90.0" fill="#000000" transform="matrix(1.00, 0.00, -0.00, -1.00, 1143.7, 666.0)">i</text><text xml:space="preserve" font-family="HelveticaNeue-Light" font-size="90.0" fill="#000000" transform="matrix(1.00, 0.00, -0.00, -1.00, 1160.3, 666.0)">n</text><text xml:space="preserve" font-family="HelveticaNeue-Light" font-size="90.0" fill="#000000" transform="matrix(1.00, 0.00, -0.00, -1.00, 1208.7, 666.0)">d</text><text xml:space="preserve" font-family="HelveticaNeue-Light" font-size="90.0" fill="#000000" transform="matrix(1.00, 0.00, -0.00, -1.00, 1260.3, 666.0)">i</text><text xml:space="preserve" font-family="HelveticaNeue-Light" font-size="90.0" fill="#000000" transform="matrix(1.00, 0.00, -0.00, -1.00, 1277.0, 666.0)">s</text><text xml:space="preserve" font-family="HelveticaNeue-Light" font-size="90.0" fill="#000000" transform="matrix(1.00, 0.00, -0.00, -1.00, 1320.3, 666.0)">p</text><text xml:space="preserve" font-family="HelveticaNeue-Light" font-size="90.0" fill="#000000" transform="matrix(1.00, 0.00, -0.00, -1.00, 1371.9, 666.0)">e</text><text xml:space="preserve" font-family="HelveticaNeue-Light" font-size="90.0" fill="#000000" transform="matrix(1.00, 0.00, -0.00, -1.00, 1418.7, 666.0)">n</text><text xml:space="preserve" font-family="HelveticaNeue-Light" font-size="90.0" fill="#000000" transform="matrix(1.00, 0.00, -0.00, -1.00, 1467.0, 666.0)">s</text><text xml:space="preserve" font-family="HelveticaNeue-Light" font-size="90.0" fill="#000000" transform="matrix(1.00, 0.00, -0.00, -1.00, 1510.3, 666.0)">a</text><text xml:space="preserve" font-family="HelveticaNeue-Light" font-size="90.0" fill="#000000" transform="matrix(1.00, 0.00, -0.00, -1.00, 1557.0, 666.0)">b</text><text xml:space="preserve" font-family="HelveticaNeue-Light" font-size="90.0" fill="#000000" transform="matrix(1.00, 0.00, -0.00, -1.00, 1608.6, 666.0)">l</text><text xml:space="preserve" font-family="HelveticaNeue-Light" font-size="90.0" fill="#000000" transform="matrix(1.00, 0.00, -0.00, -1.00, 1625.3, 666.0)">e</text><text xml:space="preserve" font-family="HelveticaNeue-Light" font-size="90.0" fill="#000000" transform="matrix(1.00, 0.00, -0.00, -1.00, 959.0, 506.0)">I</text><text xml:space="preserve" font-family="HelveticaNeue-Light" font-size="90.0" fill="#000000" transform="matrix(1.00, 0.00, -0.00, -1.00, 979.0, 506.0)"> </text><text xml:space="preserve" font-family="HelveticaNeue-Light" font-size="90.0" fill="#000000" transform="matrix(1.00, 0.00, -0.00, -1.00, 1004.0, 506.0)">a</text><text xml:space="preserve" font-family="HelveticaNeue-Light" font-size="90.0" fill="#000000" transform="matrix(1.00, 0.00, -0.00, -1.00, 1050.7, 506.0)">m</text><text xml:space="preserve" font-family="HelveticaNeue-Light" font-size="90.0" fill="#000000" transform="matrix(1.00, 0.00, -0.00, -1.00, 1125.7, 506.0)"> </text><text xml:space="preserve" font-family="HelveticaNeue-Light" font-size="90.0" fill="#000000" transform="matrix(1.00, 0.00, -0.00, -1.00, 1150.7, 506.0)">i</text><text xml:space="preserve" font-family="HelveticaNeue-Light" font-size="90.0" fill="#000000" transform="matrix(1.00, 0.00, -0.00, -1.00, 1167.3, 506.0)">n</text><text xml:space="preserve" font-family="HelveticaNeue-Light" font-size="90.0" fill="#000000" transform="matrix(1.00, 0.00, -0.00, -1.00, 1215.7, 506.0)">d</text><text xml:space="preserve" font-family="HelveticaNeue-Light" font-size="90.0" fill="#000000" transform="matrix(1.00, 0.00, -0.00, -1.00, 1267.3, 506.0)">e</text><text xml:space="preserve" font-family="HelveticaNeue-Light" font-size="90.0" fill="#000000" transform="matrix(1.00, 0.00, -0.00, -1.00, 1314.0, 506.0)">s</text><text xml:space="preserve" font-family="HelveticaNeue-Light" font-size="90.0" fill="#000000" transform="matrix(1.00, 0.00, -0.00, -1.00, 1357.3, 506.0)">t</text><text xml:space="preserve" font-family="HelveticaNeue-Light" font-size="90.0" fill="#000000" transform="matrix(1.00, 0.00, -0.00, -1.00, 1384.0, 506.0)">r</text><text xml:space="preserve" font-family="HelveticaNeue-Light" font-size="90.0" fill="#000000" transform="matrix(1.00, 0.00, -0.00, -1.00, 1412.3, 506.0)">u</text><text xml:space="preserve" font-family="HelveticaNeue-Light" font-size="90.0" fill="#000000" transform="matrix(1.00, 0.00, -0.00, -1.00, 1460.7, 506.0)">c</text><text xml:space="preserve" font-family="HelveticaNeue-Light" font-size="90.0" fill="#000000" transform="matrix(1.00, 0.00, -0.00, -1.00, 1507.4, 506.0)">t</text><text xml:space="preserve" font-family="HelveticaNeue-Light" font-size="90.0" fill="#000000" transform="matrix(1.00, 0.00, -0.00, -1.00, 1534.0, 506.0)">i</text><text xml:space="preserve" font-family="HelveticaNeue-Light" font-size="90.0" fill="#000000" transform="matrix(1.00, 0.00, -0.00, -1.00, 1550.7, 506.0)">b</text><text xml:space="preserve" font-family="HelveticaNeue-Light" font-size="90.0" fill="#000000" transform="matrix(1.00, 0.00, -0.00, -1.00, 1602.3, 506.0)">l</text><text xml:space="preserve" font-family="HelveticaNeue-Light" font-size="90.0" fill="#000000" transform="matrix(1.00, 0.00, -0.00, -1.00, 1619.0, 506.0)">e</text><text xml:space="preserve" font-family="HelveticaNeue-Light" font-size="90.0" fill="#000000" transform="matrix(1.00, 0.00, -0.00, -1.00, 1050.0, 346.0)">I</text><text xml:space="preserve" font-family="HelveticaNeue-Light" font-size="90.0" fill="#000000" transform="matrix(1.00, 0.00, -0.00, -1.00, 1070.0, 346.0)"> </text><text xml:space="preserve" font-family="HelveticaNeue-Light" font-size="90.0" fill="#000000" transform="matrix(1.00, 0.00, -0.00, -1.00, 1095.0, 346.0)">a</text><text xml:space="preserve" font-family="HelveticaNeue-Light" font-size="90.0" fill="#000000" transform="matrix(1.00, 0.00, -0.00, -1.00, 1141.7, 346.0)">m</text><text xml:space="preserve" font-family="HelveticaNeue-Light" font-size="90.0" fill="#000000" transform="matrix(1.00, 0.00, -0.00, -1.00, 1216.7, 346.0)"> </text><text xml:space="preserve" font-family="HelveticaNeue-Light" font-size="90.0" fill="#000000" transform="matrix(1.00, 0.00, -0.00, -1.00, 1241.7, 346.0)">m</text><text xml:space="preserve" font-family="HelveticaNeue-Light" font-size="90.0" fill="#000000" transform="matrix(1.00, 0.00, -0.00, -1.00, 1316.7, 346.0)">y</text><text xml:space="preserve" font-family="HelveticaNeue-Light" font-size="90.0" fill="#000000" transform="matrix(1.00, 0.00, -0.00, -1.00, 1358.3, 346.0)"> </text><text xml:space="preserve" font-family="HelveticaNeue-Light" font-size="90.0" fill="#000000" transform="matrix(1.00, 0.00, -0.00, -1.00, 1383.4, 346.0)">w</text><text xml:space="preserve" font-family="HelveticaNeue-Light" font-size="90.0" fill="#000000" transform="matrix(1.00, 0.00, -0.00, -1.00, 1450.0, 346.0)">o</text><text xml:space="preserve" font-family="HelveticaNeue-Light" font-size="90.0" fill="#000000" transform="matrix(1.00, 0.00, -0.00, -1.00, 1500.1, 346.0)">r</text><text xml:space="preserve" font-family="HelveticaNeue-Light" font-size="90.0" fill="#000000" transform="matrix(1.00, 0.00, -0.00, -1.00, 1528.4, 346.0)">k</text></g></svg>