<?xml version="1.0" encoding="UTF-8" standalone="no"?><svg xmlns="http://www.w3.org/2000/svg" xmlns:xlink="http://www.w3.org/1999/xlink" clip-rule="evenodd" stroke-miterlimit="4.00" viewBox="0 0 1156 650"><desc>SVG generated by Keynote</desc><defs></defs><g transform="matrix(1.00, 0.00, -0.00, -1.00, 0.0, 650.0)"><text xml:space="preserve" font-family="HelveticaNeue-Light" font-size="70.0" fill="#000000" transform="matrix(1.00, 0.00, -0.00, -1.00, 419.0, 597.0)">“</text><text xml:space="preserve" font-family="HelveticaNeue-Light" font-size="70.0" fill="#000000" transform="matrix(1.00, 0.00, -0.00, -1.00, 444.9, 597.0)">t</text><text xml:space="preserve" font-family="HelveticaNeue-Light" font-size="70.0" fill="#000000" transform="matrix(1.00, 0.00, -0.00, -1.00, 465.6, 597.0)">o</text><text xml:space="preserve" font-family="HelveticaNeue-Light" font-size="70.0" fill="#000000" transform="matrix(1.00, 0.00, -0.00, -1.00, 504.5, 597.0)">o</text><text xml:space="preserve" font-family="HelveticaNeue-Light" font-size="70.0" fill="#000000" transform="matrix(1.00, 0.00, -0.00, -1.00, 543.5, 597.0)"> </text><text xml:space="preserve" font-family="HelveticaNeue-Light" font-size="70.0" fill="#000000" transform="matrix(1.00, 0.00, -0.00, -1.00, 562.9, 597.0)">b</text><text xml:space="preserve" font-family="HelveticaNeue-Light" font-size="70.0" fill="#000000" transform="matrix(1.00, 0.00, -0.00, -1.00, 603.1, 597.0)">u</text><text xml:space="preserve" font-family="HelveticaNeue-Light" font-size="70.0" fill="#000000" transform="matrix(1.00, 0.00, -0.00, -1.00, 640.7, 597.0)">s</text><text xml:space="preserve" font-family="HelveticaNeue-Light" font-size="70.0" fill="#000000" transform="matrix(1.00, 0.00, -0.00, -1.00, 674.4, 597.0)">y</text><text xml:space="preserve" font-family="HelveticaNeue-Light" font-size="70.0" fill="#000000" transform="matrix(1.00, 0.00, -0.00, -1.00, 706.8, 597.0)">”</text><text xml:space="preserve" font-family="HelveticaNeue-Light" font-size="70.0" fill="#000000" transform="matrix(1.00, 0.00, -0.00, -1.00, 732.7, 597.0)"> </text><text xml:space="preserve" font-family="HelveticaNeue-Light" font-size="70.0" fill="#000000" transform="matrix(1.00, 0.00, -0.00, -1.00, 84.0, 512.0)">“</text><text xml:space="preserve" font-family="HelveticaNeue-Light" font-size="70.0" fill="#000000" transform="matrix(1.00, 0.00, -0.00, -1.00, 109.9, 512.0)">M</text><text xml:space="preserve" font-family="HelveticaNeue-Light" font-size="70.0" fill="#000000" transform="matrix(1.00, 0.00, -0.00, -1.00, 167.4, 512.0)">u</text><text xml:space="preserve" font-family="HelveticaNeue-Light" font-size="70.0" fill="#000000" transform="matrix(1.00, 0.00, -0.00, -1.00, 205.0, 512.0)">s</text><text xml:space="preserve" font-family="HelveticaNeue-Light" font-size="70.0" fill="#000000" transform="matrix(1.00, 0.00, -0.00, -1.00, 238.6, 512.0)">t</text><text xml:space="preserve" font-family="HelveticaNeue-Light" font-size="70.0" fill="#000000" transform="matrix(1.00, 0.00, -0.00, -1.00, 259.4, 512.0)"> </text><text xml:space="preserve" font-family="HelveticaNeue-Light" font-size="70.0" fill="#000000" transform="matrix(1.00, 0.00, -0.00, -1.00, 278.8, 512.0)">b</text><text xml:space="preserve" font-family="HelveticaNeue-Light" font-size="70.0" fill="#000000" transform="matrix(1.00, 0.00, -0.00, -1.00, 319.0, 512.0)">e</text><text xml:space="preserve" font-family="HelveticaNeue-Light" font-size="70.0" fill="#000000" transform="matrix(1.00, 0.00, -0.00, -1.00, 355.3, 512.0)"> </text><text xml:space="preserve" font-family="HelveticaNeue-Light" font-size="70.0" fill="#000000" transform="matrix(1.00, 0.00, -0.00, -1.00, 374.8, 512.0)">a</text><text xml:space="preserve" font-family="HelveticaNeue-Light" font-size="70.0" fill="#000000" transform="matrix(1.00, 0.00, -0.00, -1.00, 411.1, 512.0)"> </text><text xml:space="preserve" font-family="HelveticaNeue-Light" font-size="70.0" fill="#000000" transform="matrix(1.00, 0.00, -0.00, -1.00, 430.6, 512.0)">f</text><text xml:space="preserve" font-family="HelveticaNeue-Light" font-size="70.0" fill="#000000" transform="matrix(1.00, 0.00, -0.00, -1.00, 448.7, 512.0)">u</text><text xml:space="preserve" font-family="HelveticaNeue-Light" font-size="70.0" fill="#000000" transform="matrix(1.00, 0.00, -0.00, -1.00, 486.3, 512.0)">l</text><text xml:space="preserve" font-family="HelveticaNeue-Light" font-size="70.0" fill="#000000" transform="matrix(1.00, 0.00, -0.00, -1.00, 499.2, 512.0)">l</text><text xml:space="preserve" font-family="HelveticaNeue-Light" font-size="70.0" fill="#000000" transform="matrix(1.00, 0.00, -0.00, -1.00, 512.2, 512.0)"> </text><text xml:space="preserve" font-family="HelveticaNeue-Light" font-size="70.0" fill="#000000" transform="matrix(1.00, 0.00, -0.00, -1.00, 531.6, 512.0)">f</text><text xml:space="preserve" font-family="HelveticaNeue-Light" font-size="70.0" fill="#000000" transform="matrix(1.00, 0.00, -0.00, -1.00, 549.8, 512.0)">u</text><text xml:space="preserve" font-family="HelveticaNeue-Light" font-size="70.0" fill="#000000" transform="matrix(1.00, 0.00, -0.00, -1.00, 587.4, 512.0)">n</text><text xml:space="preserve" font-family="HelveticaNeue-Light" font-size="70.0" fill="#000000" transform="matrix(1.00, 0.00, -0.00, -1.00, 625.0, 512.0)">d</text><text xml:space="preserve" font-family="HelveticaNeue-Light" font-size="70.0" fill="#000000" transform="matrix(1.00, 0.00, -0.00, -1.00, 665.1, 512.0)">e</text><text xml:space="preserve" font-family="HelveticaNeue-Light" font-size="70.0" fill="#000000" transform="matrix(1.00, 0.00, -0.00, -1.00, 701.5, 512.0)">d</text><text xml:space="preserve" font-family="HelveticaNeue-Light" font-size="70.0" fill="#000000" transform="matrix(1.00, 0.00, -0.00, -1.00, 741.6, 512.0)"> </text><text xml:space="preserve" font-family="HelveticaNeue-Light" font-size="70.0" fill="#000000" transform="matrix(1.00, 0.00, -0.00, -1.00, 761.1, 512.0)">c</text><text xml:space="preserve" font-family="HelveticaNeue-Light" font-size="70.0" fill="#000000" transform="matrix(1.00, 0.00, -0.00, -1.00, 797.4, 512.0)">o</text><text xml:space="preserve" font-family="HelveticaNeue-Light" font-size="70.0" fill="#000000" transform="matrix(1.00, 0.00, -0.00, -1.00, 836.4, 512.0)">m</text><text xml:space="preserve" font-family="HelveticaNeue-Light" font-size="70.0" fill="#000000" transform="matrix(1.00, 0.00, -0.00, -1.00, 894.7, 512.0)">p</text><text xml:space="preserve" font-family="HelveticaNeue-Light" font-size="70.0" fill="#000000" transform="matrix(1.00, 0.00, -0.00, -1.00, 934.8, 512.0)">a</text><text xml:space="preserve" font-family="HelveticaNeue-Light" font-size="70.0" fill="#000000" transform="matrix(1.00, 0.00, -0.00, -1.00, 971.2, 512.0)">n</text><text xml:space="preserve" font-family="HelveticaNeue-Light" font-size="70.0" fill="#000000" transform="matrix(1.00, 0.00, -0.00, -1.00, 1008.8, 512.0)">y</text><text xml:space="preserve" font-family="HelveticaNeue-Light" font-size="70.0" fill="#000000" transform="matrix(1.00, 0.00, -0.00, -1.00, 1041.2, 512.0)">”</text><text xml:space="preserve" font-family="HelveticaNeue-Light" font-size="70.0" fill="#000000" transform="matrix(1.00, 0.00, -0.00, -1.00, 1067.1, 512.0)"> </text><text xml:space="preserve" font-family="HelveticaNeue-Light" font-size="70.0" fill="#000000" transform="matrix(1.00, 0.00, -0.00, -1.00, 220.0, 427.0)">“</text><text xml:space="preserve" font-family="HelveticaNeue-Light" font-size="70.0" fill="#000000" transform="matrix(1.00, 0.00, -0.00, -1.00, 245.9, 427.0)">M</text><text xml:space="preserve" font-family="HelveticaNeue-Light" font-size="70.0" fill="#000000" transform="matrix(1.00, 0.00, -0.00, -1.00, 303.4, 427.0)">u</text><text xml:space="preserve" font-family="HelveticaNeue-Light" font-size="70.0" fill="#000000" transform="matrix(1.00, 0.00, -0.00, -1.00, 341.0, 427.0)">s</text><text xml:space="preserve" font-family="HelveticaNeue-Light" font-size="70.0" fill="#000000" transform="matrix(1.00, 0.00, -0.00, -1.00, 374.6, 427.0)">t</text><text xml:space="preserve" font-family="HelveticaNeue-Light" font-size="70.0" fill="#000000" transform="matrix(1.00, 0.00, -0.00, -1.00, 395.4, 427.0)"> </text><text xml:space="preserve" font-family="HelveticaNeue-Light" font-size="70.0" fill="#000000" transform="matrix(1.00, 0.00, -0.00, -1.00, 414.8, 427.0)">b</text><text xml:space="preserve" font-family="HelveticaNeue-Light" font-size="70.0" fill="#000000" transform="matrix(1.00, 0.00, -0.00, -1.00, 455.0, 427.0)">e</text><text xml:space="preserve" font-family="HelveticaNeue-Light" font-size="70.0" fill="#000000" transform="matrix(1.00, 0.00, -0.00, -1.00, 491.3, 427.0)"> </text><text xml:space="preserve" font-family="HelveticaNeue-Light" font-size="70.0" fill="#000000" transform="matrix(1.00, 0.00, -0.00, -1.00, 510.8, 427.0)">m</text><text xml:space="preserve" font-family="HelveticaNeue-Light" font-size="70.0" fill="#000000" transform="matrix(1.00, 0.00, -0.00, -1.00, 569.1, 427.0)">a</text><text xml:space="preserve" font-family="HelveticaNeue-Light" font-size="70.0" fill="#000000" transform="matrix(1.00, 0.00, -0.00, -1.00, 605.4, 427.0)">i</text><text xml:space="preserve" font-family="HelveticaNeue-Light" font-size="70.0" fill="#000000" transform="matrix(1.00, 0.00, -0.00, -1.00, 618.4, 427.0)">n</text><text xml:space="preserve" font-family="HelveticaNeue-Light" font-size="70.0" fill="#000000" transform="matrix(1.00, 0.00, -0.00, -1.00, 656.0, 427.0)">t</text><text xml:space="preserve" font-family="HelveticaNeue-Light" font-size="70.0" fill="#000000" transform="matrix(1.00, 0.00, -0.00, -1.00, 676.7, 427.0)">a</text><text xml:space="preserve" font-family="HelveticaNeue-Light" font-size="70.0" fill="#000000" transform="matrix(1.00, 0.00, -0.00, -1.00, 713.0, 427.0)">i</text><text xml:space="preserve" font-family="HelveticaNeue-Light" font-size="70.0" fill="#000000" transform="matrix(1.00, 0.00, -0.00, -1.00, 726.0, 427.0)">n</text><text xml:space="preserve" font-family="HelveticaNeue-Light" font-size="70.0" fill="#000000" transform="matrix(1.00, 0.00, -0.00, -1.00, 763.5, 427.0)">e</text><text xml:space="preserve" font-family="HelveticaNeue-Light" font-size="70.0" fill="#000000" transform="matrix(1.00, 0.00, -0.00, -1.00, 799.9, 427.0)">d</text><text xml:space="preserve" font-family="HelveticaNeue-Light" font-size="70.0" fill="#000000" transform="matrix(1.00, 0.00, -0.00, -1.00, 840.1, 427.0)"> </text><text xml:space="preserve" font-family="HelveticaNeue-Light" font-size="70.0" fill="#000000" transform="matrix(1.00, 0.00, -0.00, -1.00, 859.5, 427.0)">b</text><text xml:space="preserve" font-family="HelveticaNeue-Light" font-size="70.0" fill="#000000" transform="matrix(1.00, 0.00, -0.00, -1.00, 899.7, 427.0)">y</text><text xml:space="preserve" font-family="HelveticaNeue-Light" font-size="70.0" fill="#000000" transform="matrix(1.00, 0.00, -0.00, -1.00, 932.1, 427.0)"> </text><text xml:space="preserve" font-family="HelveticaNeue-Light" font-size="70.0" fill="#000000" transform="matrix(1.00, 0.00, -0.00, -1.00, 124.0, 342.0)">t</text><text xml:space="preserve" font-family="HelveticaNeue-Light" font-size="70.0" fill="#000000" transform="matrix(1.00, 0.00, -0.00, -1.00, 144.7, 342.0)">h</text><text xml:space="preserve" font-family="HelveticaNeue-Light" font-size="70.0" fill="#000000" transform="matrix(1.00, 0.00, -0.00, -1.00, 182.3, 342.0)">e</text><text xml:space="preserve" font-family="HelveticaNeue-Light" font-size="70.0" fill="#000000" transform="matrix(1.00, 0.00, -0.00, -1.00, 218.6, 342.0)"> </text><text xml:space="preserve" font-family="HelveticaNeue-Light" font-size="70.0" fill="#000000" transform="matrix(1.00, 0.00, -0.00, -1.00, 238.1, 342.0)">t</text><text xml:space="preserve" font-family="HelveticaNeue-Light" font-size="70.0" fill="#000000" transform="matrix(1.00, 0.00, -0.00, -1.00, 258.8, 342.0)">o</text><text xml:space="preserve" font-family="HelveticaNeue-Light" font-size="70.0" fill="#000000" transform="matrix(1.00, 0.00, -0.00, -1.00, 297.7, 342.0)">p</text><text xml:space="preserve" font-family="HelveticaNeue-Light" font-size="70.0" fill="#000000" transform="matrix(1.00, 0.00, -0.00, -1.00, 337.9, 342.0)"> </text><text xml:space="preserve" font-family="HelveticaNeue-Light" font-size="70.0" fill="#000000" transform="matrix(1.00, 0.00, -0.00, -1.00, 357.4, 342.0)">c</text><text xml:space="preserve" font-family="HelveticaNeue-Light" font-size="70.0" fill="#000000" transform="matrix(1.00, 0.00, -0.00, -1.00, 393.7, 342.0)">o</text><text xml:space="preserve" font-family="HelveticaNeue-Light" font-size="70.0" fill="#000000" transform="matrix(1.00, 0.00, -0.00, -1.00, 432.6, 342.0)">m</text><text xml:space="preserve" font-family="HelveticaNeue-Light" font-size="70.0" fill="#000000" transform="matrix(1.00, 0.00, -0.00, -1.00, 490.9, 342.0)">p</text><text xml:space="preserve" font-family="HelveticaNeue-Light" font-size="70.0" fill="#000000" transform="matrix(1.00, 0.00, -0.00, -1.00, 531.1, 342.0)">a</text><text xml:space="preserve" font-family="HelveticaNeue-Light" font-size="70.0" fill="#000000" transform="matrix(1.00, 0.00, -0.00, -1.00, 567.5, 342.0)">n</text><text xml:space="preserve" font-family="HelveticaNeue-Light" font-size="70.0" fill="#000000" transform="matrix(1.00, 0.00, -0.00, -1.00, 605.0, 342.0)">i</text><text xml:space="preserve" font-family="HelveticaNeue-Light" font-size="70.0" fill="#000000" transform="matrix(1.00, 0.00, -0.00, -1.00, 618.0, 342.0)">e</text><text xml:space="preserve" font-family="HelveticaNeue-Light" font-size="70.0" fill="#000000" transform="matrix(1.00, 0.00, -0.00, -1.00, 654.3, 342.0)">s</text><text xml:space="preserve" font-family="HelveticaNeue-Light" font-size="70.0" fill="#000000" transform="matrix(1.00, 0.00, -0.00, -1.00, 688.0, 342.0)"> </text><text xml:space="preserve" font-family="HelveticaNeue-Light" font-size="70.0" fill="#000000" transform="matrix(1.00, 0.00, -0.00, -1.00, 707.5, 342.0)">t</text><text xml:space="preserve" font-family="HelveticaNeue-Light" font-size="70.0" fill="#000000" transform="matrix(1.00, 0.00, -0.00, -1.00, 728.2, 342.0)">h</text><text xml:space="preserve" font-family="HelveticaNeue-Light" font-size="70.0" fill="#000000" transform="matrix(1.00, 0.00, -0.00, -1.00, 765.8, 342.0)">a</text><text xml:space="preserve" font-family="HelveticaNeue-Light" font-size="70.0" fill="#000000" transform="matrix(1.00, 0.00, -0.00, -1.00, 802.1, 342.0)">t</text><text xml:space="preserve" font-family="HelveticaNeue-Light" font-size="70.0" fill="#000000" transform="matrix(1.00, 0.00, -0.00, -1.00, 822.8, 342.0)"> </text><text xml:space="preserve" font-family="HelveticaNeue-Light" font-size="70.0" fill="#000000" transform="matrix(1.00, 0.00, -0.00, -1.00, 842.3, 342.0)">u</text><text xml:space="preserve" font-family="HelveticaNeue-Light" font-size="70.0" fill="#000000" transform="matrix(1.00, 0.00, -0.00, -1.00, 879.9, 342.0)">s</text><text xml:space="preserve" font-family="HelveticaNeue-Light" font-size="70.0" fill="#000000" transform="matrix(1.00, 0.00, -0.00, -1.00, 913.5, 342.0)">e</text><text xml:space="preserve" font-family="HelveticaNeue-Light" font-size="70.0" fill="#000000" transform="matrix(1.00, 0.00, -0.00, -1.00, 949.9, 342.0)"> </text><text xml:space="preserve" font-family="HelveticaNeue-Light" font-size="70.0" fill="#000000" transform="matrix(1.00, 0.00, -0.00, -1.00, 969.3, 342.0)">i</text><text xml:space="preserve" font-family="HelveticaNeue-Light" font-size="70.0" fill="#000000" transform="matrix(1.00, 0.00, -0.00, -1.00, 982.3, 342.0)">t</text><text xml:space="preserve" font-family="HelveticaNeue-Light" font-size="70.0" fill="#000000" transform="matrix(1.00, 0.00, -0.00, -1.00, 1003.0, 342.0)">”</text><text xml:space="preserve" font-family="HelveticaNeue-Light" font-size="70.0" fill="#000000" transform="matrix(1.00, 0.00, -0.00, -1.00, 1028.9, 342.0)"> </text><text xml:space="preserve" font-family="HelveticaNeue-Light" font-size="70.0" fill="#000000" transform="matrix(1.00, 0.00, -0.00, -1.00, -2.0, 257.0)">“</text><text xml:space="preserve" font-family="HelveticaNeue-Light" font-size="70.0" fill="#000000" transform="matrix(1.00, 0.00, -0.00, -1.00, 23.9, 257.0)">M</text><text xml:space="preserve" font-family="HelveticaNeue-Light" font-size="70.0" fill="#000000" transform="matrix(1.00, 0.00, -0.00, -1.00, 81.4, 257.0)">u</text><text xml:space="preserve" font-family="HelveticaNeue-Light" font-size="70.0" fill="#000000" transform="matrix(1.00, 0.00, -0.00, -1.00, 119.0, 257.0)">s</text><text xml:space="preserve" font-family="HelveticaNeue-Light" font-size="70.0" fill="#000000" transform="matrix(1.00, 0.00, -0.00, -1.00, 152.6, 257.0)">t</text><text xml:space="preserve" font-family="HelveticaNeue-Light" font-size="70.0" fill="#000000" transform="matrix(1.00, 0.00, -0.00, -1.00, 173.3, 257.0)"> </text><text xml:space="preserve" font-family="HelveticaNeue-Light" font-size="70.0" fill="#000000" transform="matrix(1.00, 0.00, -0.00, -1.00, 192.8, 257.0)">h</text><text xml:space="preserve" font-family="HelveticaNeue-Light" font-size="70.0" fill="#000000" transform="matrix(1.00, 0.00, -0.00, -1.00, 230.4, 257.0)">a</text><text xml:space="preserve" font-family="HelveticaNeue-Light" font-size="70.0" fill="#000000" transform="matrix(1.00, 0.00, -0.00, -1.00, 266.7, 257.0)">v</text><text xml:space="preserve" font-family="HelveticaNeue-Light" font-size="70.0" fill="#000000" transform="matrix(1.00, 0.00, -0.00, -1.00, 299.1, 257.0)">e</text><text xml:space="preserve" font-family="HelveticaNeue-Light" font-size="70.0" fill="#000000" transform="matrix(1.00, 0.00, -0.00, -1.00, 335.5, 257.0)"> </text><text xml:space="preserve" font-family="HelveticaNeue-Light" font-size="70.0" fill="#000000" transform="matrix(1.00, 0.00, -0.00, -1.00, 354.9, 257.0)">t</text><text xml:space="preserve" font-family="HelveticaNeue-Light" font-size="70.0" fill="#000000" transform="matrix(1.00, 0.00, -0.00, -1.00, 375.7, 257.0)">h</text><text xml:space="preserve" font-family="HelveticaNeue-Light" font-size="70.0" fill="#000000" transform="matrix(1.00, 0.00, -0.00, -1.00, 413.2, 257.0)">o</text><text xml:space="preserve" font-family="HelveticaNeue-Light" font-size="70.0" fill="#000000" transform="matrix(1.00, 0.00, -0.00, -1.00, 452.2, 257.0)">u</text><text xml:space="preserve" font-family="HelveticaNeue-Light" font-size="70.0" fill="#000000" transform="matrix(1.00, 0.00, -0.00, -1.00, 489.8, 257.0)">s</text><text xml:space="preserve" font-family="HelveticaNeue-Light" font-size="70.0" fill="#000000" transform="matrix(1.00, 0.00, -0.00, -1.00, 523.4, 257.0)">a</text><text xml:space="preserve" font-family="HelveticaNeue-Light" font-size="70.0" fill="#000000" transform="matrix(1.00, 0.00, -0.00, -1.00, 559.8, 257.0)">n</text><text xml:space="preserve" font-family="HelveticaNeue-Light" font-size="70.0" fill="#000000" transform="matrix(1.00, 0.00, -0.00, -1.00, 597.3, 257.0)">d</text><text xml:space="preserve" font-family="HelveticaNeue-Light" font-size="70.0" fill="#000000" transform="matrix(1.00, 0.00, -0.00, -1.00, 637.5, 257.0)">s</text><text xml:space="preserve" font-family="HelveticaNeue-Light" font-size="70.0" fill="#000000" transform="matrix(1.00, 0.00, -0.00, -1.00, 671.2, 257.0)"> </text><text xml:space="preserve" font-family="HelveticaNeue-Light" font-size="70.0" fill="#000000" transform="matrix(1.00, 0.00, -0.00, -1.00, 690.6, 257.0)">o</text><text xml:space="preserve" font-family="HelveticaNeue-Light" font-size="70.0" fill="#000000" transform="matrix(1.00, 0.00, -0.00, -1.00, 729.6, 257.0)">f</text><text xml:space="preserve" font-family="HelveticaNeue-Light" font-size="70.0" fill="#000000" transform="matrix(1.00, 0.00, -0.00, -1.00, 747.7, 257.0)"> </text><text xml:space="preserve" font-family="HelveticaNeue-Light" font-size="70.0" fill="#000000" transform="matrix(1.00, 0.00, -0.00, -1.00, 767.2, 257.0)">c</text><text xml:space="preserve" font-family="HelveticaNeue-Light" font-size="70.0" fill="#000000" transform="matrix(1.00, 0.00, -0.00, -1.00, 803.5, 257.0)">o</text><text xml:space="preserve" font-family="HelveticaNeue-Light" font-size="70.0" fill="#000000" transform="matrix(1.00, 0.00, -0.00, -1.00, 842.4, 257.0)">n</text><text xml:space="preserve" font-family="HelveticaNeue-Light" font-size="70.0" fill="#000000" transform="matrix(1.00, 0.00, -0.00, -1.00, 880.0, 257.0)">t</text><text xml:space="preserve" font-family="HelveticaNeue-Light" font-size="70.0" fill="#000000" transform="matrix(1.00, 0.00, -0.00, -1.00, 900.7, 257.0)">r</text><text xml:space="preserve" font-family="HelveticaNeue-Light" font-size="70.0" fill="#000000" transform="matrix(1.00, 0.00, -0.00, -1.00, 922.8, 257.0)">i</text><text xml:space="preserve" font-family="HelveticaNeue-Light" font-size="70.0" fill="#000000" transform="matrix(1.00, 0.00, -0.00, -1.00, 935.7, 257.0)">b</text><text xml:space="preserve" font-family="HelveticaNeue-Light" font-size="70.0" fill="#000000" transform="matrix(1.00, 0.00, -0.00, -1.00, 975.9, 257.0)">u</text><text xml:space="preserve" font-family="HelveticaNeue-Light" font-size="70.0" fill="#000000" transform="matrix(1.00, 0.00, -0.00, -1.00, 1013.5, 257.0)">t</text><text xml:space="preserve" font-family="HelveticaNeue-Light" font-size="70.0" fill="#000000" transform="matrix(1.00, 0.00, -0.00, -1.00, 1034.2, 257.0)">o</text><text xml:space="preserve" font-family="HelveticaNeue-Light" font-size="70.0" fill="#000000" transform="matrix(1.00, 0.00, -0.00, -1.00, 1073.1, 257.0)">r</text><text xml:space="preserve" font-family="HelveticaNeue-Light" font-size="70.0" fill="#000000" transform="matrix(1.00, 0.00, -0.00, -1.00, 1095.2, 257.0)">s</text><text xml:space="preserve" font-family="HelveticaNeue-Light" font-size="70.0" fill="#000000" transform="matrix(1.00, 0.00, -0.00, -1.00, 1128.9, 257.0)">”</text><text xml:space="preserve" font-family="HelveticaNeue-Light" font-size="70.0" fill="#000000" transform="matrix(1.00, 0.00, -0.00, -1.00, 1154.8, 257.0)"> </text><text xml:space="preserve" font-family="HelveticaNeue-Light" font-size="70.0" fill="#000000" transform="matrix(1.00, 0.00, -0.00, -1.00, 60.0, 172.0)">“</text><text xml:space="preserve" font-family="HelveticaNeue-Light" font-size="70.0" fill="#000000" transform="matrix(1.00, 0.00, -0.00, -1.00, 85.9, 172.0)">M</text><text xml:space="preserve" font-family="HelveticaNeue-Light" font-size="70.0" fill="#000000" transform="matrix(1.00, 0.00, -0.00, -1.00, 143.4, 172.0)">u</text><text xml:space="preserve" font-family="HelveticaNeue-Light" font-size="70.0" fill="#000000" transform="matrix(1.00, 0.00, -0.00, -1.00, 181.0, 172.0)">s</text><text xml:space="preserve" font-family="HelveticaNeue-Light" font-size="70.0" fill="#000000" transform="matrix(1.00, 0.00, -0.00, -1.00, 214.6, 172.0)">t</text><text xml:space="preserve" font-family="HelveticaNeue-Light" font-size="70.0" fill="#000000" transform="matrix(1.00, 0.00, -0.00, -1.00, 235.3, 172.0)"> </text><text xml:space="preserve" font-family="HelveticaNeue-Light" font-size="70.0" fill="#000000" transform="matrix(1.00, 0.00, -0.00, -1.00, 254.8, 172.0)">n</text><text xml:space="preserve" font-family="HelveticaNeue-Light" font-size="70.0" fill="#000000" transform="matrix(1.00, 0.00, -0.00, -1.00, 292.4, 172.0)">e</text><text xml:space="preserve" font-family="HelveticaNeue-Light" font-size="70.0" fill="#000000" transform="matrix(1.00, 0.00, -0.00, -1.00, 328.7, 172.0)">e</text><text xml:space="preserve" font-family="HelveticaNeue-Light" font-size="70.0" fill="#000000" transform="matrix(1.00, 0.00, -0.00, -1.00, 365.1, 172.0)">d</text><text xml:space="preserve" font-family="HelveticaNeue-Light" font-size="70.0" fill="#000000" transform="matrix(1.00, 0.00, -0.00, -1.00, 405.2, 172.0)"> </text><text xml:space="preserve" font-family="HelveticaNeue-Light" font-size="70.0" fill="#000000" transform="matrix(1.00, 0.00, -0.00, -1.00, 424.7, 172.0)">t</text><text xml:space="preserve" font-family="HelveticaNeue-Light" font-size="70.0" fill="#000000" transform="matrix(1.00, 0.00, -0.00, -1.00, 445.4, 172.0)">o</text><text xml:space="preserve" font-family="HelveticaNeue-Light" font-size="70.0" fill="#000000" transform="matrix(1.00, 0.00, -0.00, -1.00, 484.3, 172.0)"> </text><text xml:space="preserve" font-family="HelveticaNeue-Light" font-size="70.0" fill="#000000" transform="matrix(1.00, 0.00, -0.00, -1.00, 503.8, 172.0)">m</text><text xml:space="preserve" font-family="HelveticaNeue-Light" font-size="70.0" fill="#000000" transform="matrix(1.00, 0.00, -0.00, -1.00, 562.1, 172.0)">a</text><text xml:space="preserve" font-family="HelveticaNeue-Light" font-size="70.0" fill="#000000" transform="matrix(1.00, 0.00, -0.00, -1.00, 598.4, 172.0)">k</text><text xml:space="preserve" font-family="HelveticaNeue-Light" font-size="70.0" fill="#000000" transform="matrix(1.00, 0.00, -0.00, -1.00, 633.4, 172.0)">e</text><text xml:space="preserve" font-family="HelveticaNeue-Light" font-size="70.0" fill="#000000" transform="matrix(1.00, 0.00, -0.00, -1.00, 669.8, 172.0)"> </text><text xml:space="preserve" font-family="HelveticaNeue-Light" font-size="70.0" fill="#000000" transform="matrix(1.00, 0.00, -0.00, -1.00, 689.2, 172.0)">a</text><text xml:space="preserve" font-family="HelveticaNeue-Light" font-size="70.0" fill="#000000" transform="matrix(1.00, 0.00, -0.00, -1.00, 725.6, 172.0)"> </text><text xml:space="preserve" font-family="HelveticaNeue-Light" font-size="70.0" fill="#000000" transform="matrix(1.00, 0.00, -0.00, -1.00, 745.0, 172.0)">p</text><text xml:space="preserve" font-family="HelveticaNeue-Light" font-size="70.0" fill="#000000" transform="matrix(1.00, 0.00, -0.00, -1.00, 785.2, 172.0)">e</text><text xml:space="preserve" font-family="HelveticaNeue-Light" font-size="70.0" fill="#000000" transform="matrix(1.00, 0.00, -0.00, -1.00, 821.5, 172.0)">r</text><text xml:space="preserve" font-family="HelveticaNeue-Light" font-size="70.0" fill="#000000" transform="matrix(1.00, 0.00, -0.00, -1.00, 843.6, 172.0)">f</text><text xml:space="preserve" font-family="HelveticaNeue-Light" font-size="70.0" fill="#000000" transform="matrix(1.00, 0.00, -0.00, -1.00, 861.7, 172.0)">e</text><text xml:space="preserve" font-family="HelveticaNeue-Light" font-size="70.0" fill="#000000" transform="matrix(1.00, 0.00, -0.00, -1.00, 898.0, 172.0)">c</text><text xml:space="preserve" font-family="HelveticaNeue-Light" font-size="70.0" fill="#000000" transform="matrix(1.00, 0.00, -0.00, -1.00, 934.4, 172.0)">t</text><text xml:space="preserve" font-family="HelveticaNeue-Light" font-size="70.0" fill="#000000" transform="matrix(1.00, 0.00, -0.00, -1.00, 955.1, 172.0)"> </text><text xml:space="preserve" font-family="HelveticaNeue-Light" font-size="70.0" fill="#000000" transform="matrix(1.00, 0.00, -0.00, -1.00, 974.6, 172.0)">P</text><text xml:space="preserve" font-family="HelveticaNeue-Light" font-size="70.0" fill="#000000" transform="matrix(1.00, 0.00, -0.00, -1.00, 1018.7, 172.0)">R</text><text xml:space="preserve" font-family="HelveticaNeue-Light" font-size="70.0" fill="#000000" transform="matrix(1.00, 0.00, -0.00, -1.00, 1065.3, 172.0)">”</text><text xml:space="preserve" font-family="HelveticaNeue-Light" font-size="70.0" fill="#000000" transform="matrix(1.00, 0.00, -0.00, -1.00, 1091.2, 172.0)"> </text><text xml:space="preserve" font-family="HelveticaNeue-Light" font-size="70.0" fill="#000000" transform="matrix(1.00, 0.00, -0.00, -1.00, 79.0, 87.0)">“</text><text xml:space="preserve" font-family="HelveticaNeue-Light" font-size="70.0" fill="#000000" transform="matrix(1.00, 0.00, -0.00, -1.00, 104.9, 87.0)">M</text><text xml:space="preserve" font-family="HelveticaNeue-Light" font-size="70.0" fill="#000000" transform="matrix(1.00, 0.00, -0.00, -1.00, 162.4, 87.0)">u</text><text xml:space="preserve" font-family="HelveticaNeue-Light" font-size="70.0" fill="#000000" transform="matrix(1.00, 0.00, -0.00, -1.00, 200.0, 87.0)">s</text><text xml:space="preserve" font-family="HelveticaNeue-Light" font-size="70.0" fill="#000000" transform="matrix(1.00, 0.00, -0.00, -1.00, 233.6, 87.0)">t</text><text xml:space="preserve" font-family="HelveticaNeue-Light" font-size="70.0" fill="#000000" transform="matrix(1.00, 0.00, -0.00, -1.00, 254.3, 87.0)"> </text><text xml:space="preserve" font-family="HelveticaNeue-Light" font-size="70.0" fill="#000000" transform="matrix(1.00, 0.00, -0.00, -1.00, 273.8, 87.0)">b</text><text xml:space="preserve" font-family="HelveticaNeue-Light" font-size="70.0" fill="#000000" transform="matrix(1.00, 0.00, -0.00, -1.00, 314.0, 87.0)">e</text><text xml:space="preserve" font-family="HelveticaNeue-Light" font-size="70.0" fill="#000000" transform="matrix(1.00, 0.00, -0.00, -1.00, 350.3, 87.0)"> </text><text xml:space="preserve" font-family="HelveticaNeue-Light" font-size="70.0" fill="#000000" transform="matrix(1.00, 0.00, -0.00, -1.00, 369.8, 87.0)">e</text><text xml:space="preserve" font-family="HelveticaNeue-Light" font-size="70.0" fill="#000000" transform="matrix(1.00, 0.00, -0.00, -1.00, 406.1, 87.0)">x</text><text xml:space="preserve" font-family="HelveticaNeue-Light" font-size="70.0" fill="#000000" transform="matrix(1.00, 0.00, -0.00, -1.00, 439.8, 87.0)">t</text><text xml:space="preserve" font-family="HelveticaNeue-Light" font-size="70.0" fill="#000000" transform="matrix(1.00, 0.00, -0.00, -1.00, 460.5, 87.0)">r</text><text xml:space="preserve" font-family="HelveticaNeue-Light" font-size="70.0" fill="#000000" transform="matrix(1.00, 0.00, -0.00, -1.00, 481.3, 87.0)">e</text><text xml:space="preserve" font-family="HelveticaNeue-Light" font-size="70.0" fill="#000000" transform="matrix(1.00, 0.00, -0.00, -1.00, 517.6, 87.0)">m</text><text xml:space="preserve" font-family="HelveticaNeue-Light" font-size="70.0" fill="#000000" transform="matrix(1.00, 0.00, -0.00, -1.00, 575.9, 87.0)">e</text><text xml:space="preserve" font-family="HelveticaNeue-Light" font-size="70.0" fill="#000000" transform="matrix(1.00, 0.00, -0.00, -1.00, 612.3, 87.0)">l</text><text xml:space="preserve" font-family="HelveticaNeue-Light" font-size="70.0" fill="#000000" transform="matrix(1.00, 0.00, -0.00, -1.00, 625.2, 87.0)">y</text><text xml:space="preserve" font-family="HelveticaNeue-Light" font-size="70.0" fill="#000000" transform="matrix(1.00, 0.00, -0.00, -1.00, 657.6, 87.0)"> </text><text xml:space="preserve" font-family="HelveticaNeue-Light" font-size="70.0" fill="#000000" transform="matrix(1.00, 0.00, -0.00, -1.00, 677.1, 87.0)">c</text><text xml:space="preserve" font-family="HelveticaNeue-Light" font-size="70.0" fill="#000000" transform="matrix(1.00, 0.00, -0.00, -1.00, 713.4, 87.0)">o</text><text xml:space="preserve" font-family="HelveticaNeue-Light" font-size="70.0" fill="#000000" transform="matrix(1.00, 0.00, -0.00, -1.00, 752.3, 87.0)">m</text><text xml:space="preserve" font-family="HelveticaNeue-Light" font-size="70.0" fill="#000000" transform="matrix(1.00, 0.00, -0.00, -1.00, 810.6, 87.0)">p</text><text xml:space="preserve" font-family="HelveticaNeue-Light" font-size="70.0" fill="#000000" transform="matrix(1.00, 0.00, -0.00, -1.00, 850.8, 87.0)">l</text><text xml:space="preserve" font-family="HelveticaNeue-Light" font-size="70.0" fill="#000000" transform="matrix(1.00, 0.00, -0.00, -1.00, 863.8, 87.0)">i</text><text xml:space="preserve" font-family="HelveticaNeue-Light" font-size="70.0" fill="#000000" transform="matrix(1.00, 0.00, -0.00, -1.00, 876.7, 87.0)">c</text><text xml:space="preserve" font-family="HelveticaNeue-Light" font-size="70.0" fill="#000000" transform="matrix(1.00, 0.00, -0.00, -1.00, 913.1, 87.0)">a</text><text xml:space="preserve" font-family="HelveticaNeue-Light" font-size="70.0" fill="#000000" transform="matrix(1.00, 0.00, -0.00, -1.00, 949.4, 87.0)">t</text><text xml:space="preserve" font-family="HelveticaNeue-Light" font-size="70.0" fill="#000000" transform="matrix(1.00, 0.00, -0.00, -1.00, 970.1, 87.0)">e</text><text xml:space="preserve" font-family="HelveticaNeue-Light" font-size="70.0" fill="#000000" transform="matrix(1.00, 0.00, -0.00, -1.00, 1006.4, 87.0)">d</text><text xml:space="preserve" font-family="HelveticaNeue-Light" font-size="70.0" fill="#000000" transform="matrix(1.00, 0.00, -0.00, -1.00, 1046.6, 87.0)">”</text><text xml:space="preserve" font-family="HelveticaNeue-Light" font-size="70.0" fill="#000000" transform="matrix(1.00, 0.00, -0.00, -1.00, 1072.5, 87.0)"> </text><text xml:space="preserve" font-family="HelveticaNeue-Light" font-size="70.0" fill="#000000" transform="matrix(1.00, 0.00, -0.00, -1.00, 147.0, 2.0)">“</text><text xml:space="preserve" font-family="HelveticaNeue-Light" font-size="70.0" fill="#000000" transform="matrix(1.00, 0.00, -0.00, -1.00, 172.9, 2.0)">M</text><text xml:space="preserve" font-family="HelveticaNeue-Light" font-size="70.0" fill="#000000" transform="matrix(1.00, 0.00, -0.00, -1.00, 230.4, 2.0)">u</text><text xml:space="preserve" font-family="HelveticaNeue-Light" font-size="70.0" fill="#000000" transform="matrix(1.00, 0.00, -0.00, -1.00, 268.0, 2.0)">s</text><text xml:space="preserve" font-family="HelveticaNeue-Light" font-size="70.0" fill="#000000" transform="matrix(1.00, 0.00, -0.00, -1.00, 301.6, 2.0)">t</text><text xml:space="preserve" font-family="HelveticaNeue-Light" font-size="70.0" fill="#000000" transform="matrix(1.00, 0.00, -0.00, -1.00, 322.4, 2.0)"> </text><text xml:space="preserve" font-family="HelveticaNeue-Light" font-size="70.0" fill="#000000" transform="matrix(1.00, 0.00, -0.00, -1.00, 341.8, 2.0)">n</text><text xml:space="preserve" font-family="HelveticaNeue-Light" font-size="70.0" fill="#000000" transform="matrix(1.00, 0.00, -0.00, -1.00, 379.4, 2.0)">e</text><text xml:space="preserve" font-family="HelveticaNeue-Light" font-size="70.0" fill="#000000" transform="matrix(1.00, 0.00, -0.00, -1.00, 415.7, 2.0)">v</text><text xml:space="preserve" font-family="HelveticaNeue-Light" font-size="70.0" fill="#000000" transform="matrix(1.00, 0.00, -0.00, -1.00, 448.1, 2.0)">e</text><text xml:space="preserve" font-family="HelveticaNeue-Light" font-size="70.0" fill="#000000" transform="matrix(1.00, 0.00, -0.00, -1.00, 484.5, 2.0)">r</text><text xml:space="preserve" font-family="HelveticaNeue-Light" font-size="70.0" fill="#000000" transform="matrix(1.00, 0.00, -0.00, -1.00, 506.5, 2.0)"> </text><text xml:space="preserve" font-family="HelveticaNeue-Light" font-size="70.0" fill="#000000" transform="matrix(1.00, 0.00, -0.00, -1.00, 526.0, 2.0)">m</text><text xml:space="preserve" font-family="HelveticaNeue-Light" font-size="70.0" fill="#000000" transform="matrix(1.00, 0.00, -0.00, -1.00, 584.3, 2.0)">a</text><text xml:space="preserve" font-family="HelveticaNeue-Light" font-size="70.0" fill="#000000" transform="matrix(1.00, 0.00, -0.00, -1.00, 620.6, 2.0)">k</text><text xml:space="preserve" font-family="HelveticaNeue-Light" font-size="70.0" fill="#000000" transform="matrix(1.00, 0.00, -0.00, -1.00, 655.6, 2.0)">e</text><text xml:space="preserve" font-family="HelveticaNeue-Light" font-size="70.0" fill="#000000" transform="matrix(1.00, 0.00, -0.00, -1.00, 692.0, 2.0)"> </text><text xml:space="preserve" font-family="HelveticaNeue-Light" font-size="70.0" fill="#000000" transform="matrix(1.00, 0.00, -0.00, -1.00, 711.4, 2.0)">m</text><text xml:space="preserve" font-family="HelveticaNeue-Light" font-size="70.0" fill="#000000" transform="matrix(1.00, 0.00, -0.00, -1.00, 769.7, 2.0)">i</text><text xml:space="preserve" font-family="HelveticaNeue-Light" font-size="70.0" fill="#000000" transform="matrix(1.00, 0.00, -0.00, -1.00, 782.7, 2.0)">s</text><text xml:space="preserve" font-family="HelveticaNeue-Light" font-size="70.0" fill="#000000" transform="matrix(1.00, 0.00, -0.00, -1.00, 816.3, 2.0)">t</text><text xml:space="preserve" font-family="HelveticaNeue-Light" font-size="70.0" fill="#000000" transform="matrix(1.00, 0.00, -0.00, -1.00, 837.1, 2.0)">a</text><text xml:space="preserve" font-family="HelveticaNeue-Light" font-size="70.0" fill="#000000" transform="matrix(1.00, 0.00, -0.00, -1.00, 873.4, 2.0)">k</text><text xml:space="preserve" font-family="HelveticaNeue-Light" font-size="70.0" fill="#000000" transform="matrix(1.00, 0.00, -0.00, -1.00, 908.4, 2.0)">e</text><text xml:space="preserve" font-family="HelveticaNeue-Light" font-size="70.0" fill="#000000" transform="matrix(1.00, 0.00, -0.00, -1.00, 944.7, 2.0)">s</text><text xml:space="preserve" font-family="HelveticaNeue-Light" font-size="70.0" fill="#000000" transform="matrix(1.00, 0.00, -0.00, -1.00, 978.4, 2.0)">”</text></g></svg>