<?xml version="1.0" encoding="UTF-8" standalone="no"?><svg xmlns="http://www.w3.org/2000/svg" xmlns:xlink="http://www.w3.org/1999/xlink" clip-rule="evenodd" stroke-miterlimit="4.00" viewBox="0 0 632 217"><desc>SVG generated by Keynote</desc><defs></defs><g transform="matrix(1.00, 0.00, -0.00, -1.00, 0.0, 217.0)"><text xml:space="preserve" font-family="HelveticaNeue-Light" font-size="100.0" fill="#000000" transform="matrix(1.00, 0.00, -0.00, -1.00, -2.0, 142.0)">S</text><text xml:space="preserve" font-family="HelveticaNeue-Light" font-size="100.0" fill="#000000" transform="matrix(1.00, 0.00, -0.00, -1.00, 61.0, 142.0)">o</text><text xml:space="preserve" font-family="HelveticaNeue-Light" font-size="100.0" fill="#000000" transform="matrix(1.00, 0.00, -0.00, -1.00, 116.6, 142.0)"> </text><text xml:space="preserve" font-family="HelveticaNeue-Light" font-size="100.0" fill="#000000" transform="matrix(1.00, 0.00, -0.00, -1.00, 144.4, 142.0)">c</text><text xml:space="preserve" font-family="HelveticaNeue-Light" font-size="100.0" fill="#000000" transform="matrix(1.00, 0.00, -0.00, -1.00, 196.3, 142.0)">o</text><text xml:space="preserve" font-family="HelveticaNeue-Light" font-size="100.0" fill="#000000" transform="matrix(1.00, 0.00, -0.00, -1.00, 251.9, 142.0)">n</text><text xml:space="preserve" font-family="HelveticaNeue-Light" font-size="100.0" fill="#000000" transform="matrix(1.00, 0.00, -0.00, -1.00, 305.6, 142.0)">n</text><text xml:space="preserve" font-family="HelveticaNeue-Light" font-size="100.0" fill="#000000" transform="matrix(1.00, 0.00, -0.00, -1.00, 359.3, 142.0)">e</text><text xml:space="preserve" font-family="HelveticaNeue-Light" font-size="100.0" fill="#000000" transform="matrix(1.00, 0.00, -0.00, -1.00, 411.2, 142.0)">c</text><text xml:space="preserve" font-family="HelveticaNeue-Light" font-size="100.0" fill="#000000" transform="matrix(1.00, 0.00, -0.00, -1.00, 463.1, 142.0)">t</text><text xml:space="preserve" font-family="HelveticaNeue-Light" font-size="100.0" fill="#000000" transform="matrix(1.00, 0.00, -0.00, -1.00, 492.7, 142.0)">e</text><text xml:space="preserve" font-family="HelveticaNeue-Light" font-size="100.0" fill="#000000" transform="matrix(1.00, 0.00, -0.00, -1.00, 544.6, 142.0)">d</text><text xml:space="preserve" font-family="HelveticaNeue-Light" font-size="100.0" fill="#000000" transform="matrix(1.00, 0.00, -0.00, -1.00, 602.0, 142.0)">,</text><text xml:space="preserve" font-family="HelveticaNeue-Light" font-size="100.0" fill="#000000" transform="matrix(1.00, 0.00, -0.00, -1.00, 629.8, 142.0)"> </text><text xml:space="preserve" font-family="HelveticaNeue-Light" font-size="100.0" fill="#000000" transform="matrix(1.00, 0.00, -0.00, -1.00, 70.0, 21.0)">y</text><text xml:space="preserve" font-family="HelveticaNeue-Light" font-size="100.0" fill="#000000" transform="matrix(1.00, 0.00, -0.00, -1.00, 116.3, 21.0)">e</text><text xml:space="preserve" font-family="HelveticaNeue-Light" font-size="100.0" fill="#000000" transform="matrix(1.00, 0.00, -0.00, -1.00, 168.2, 21.0)">t</text><text xml:space="preserve" font-family="HelveticaNeue-Light" font-size="100.0" fill="#000000" transform="matrix(1.00, 0.00, -0.00, -1.00, 197.8, 21.0)"> </text><text xml:space="preserve" font-family="HelveticaNeue-Light" font-size="100.0" fill="#000000" transform="matrix(1.00, 0.00, -0.00, -1.00, 225.6, 21.0)">i</text><text xml:space="preserve" font-family="HelveticaNeue-Light" font-size="100.0" fill="#000000" transform="matrix(1.00, 0.00, -0.00, -1.00, 244.1, 21.0)">s</text><text xml:space="preserve" font-family="HelveticaNeue-Light" font-size="100.0" fill="#000000" transform="matrix(1.00, 0.00, -0.00, -1.00, 292.2, 21.0)">o</text><text xml:space="preserve" font-family="HelveticaNeue-Light" font-size="100.0" fill="#000000" transform="matrix(1.00, 0.00, -0.00, -1.00, 347.8, 21.0)">l</text><text xml:space="preserve" font-family="HelveticaNeue-Light" font-size="100.0" fill="#000000" transform="matrix(1.00, 0.00, -0.00, -1.00, 366.3, 21.0)">a</text><text xml:space="preserve" font-family="HelveticaNeue-Light" font-size="100.0" fill="#000000" transform="matrix(1.00, 0.00, -0.00, -1.00, 418.2, 21.0)">t</text><text xml:space="preserve" font-family="HelveticaNeue-Light" font-size="100.0" fill="#000000" transform="matrix(1.00, 0.00, -0.00, -1.00, 447.8, 21.0)">e</text><text xml:space="preserve" font-family="HelveticaNeue-Light" font-size="100.0" fill="#000000" transform="matrix(1.00, 0.00, -0.00, -1.00, 499.7, 21.0)">d</text></g></svg>