<?xml version="1.0" encoding="UTF-8" standalone="no"?><svg xmlns="http://www.w3.org/2000/svg" xmlns:xlink="http://www.w3.org/1999/xlink" clip-rule="evenodd" stroke-miterlimit="4.00" viewBox="0 0 1920 1080"><desc>SVG generated by Keynote</desc><defs></defs><g transform="matrix(1.00, 0.00, -0.00, -1.00, 0.0, 1080.0)"><path d="M 0.0 1080.0 L 1920.0 1080.0 L 1920.0 0.0 L 0.0 0.0 Z M 0.0 1080.0 " fill="#FEFFFE"></path><g><clipPath id="clip-0"><path d="M 150.0 585.0 L 1770.0 585.0 L 1770.0 174.0 L 150.0 174.0 Z M 150.0 584.6 "></path></clipPath><g clip-path="url(#clip-0)"><image xlink:href="3EDAF096032B19BE0AC7F899E0D6E20A.png" width="961.00" height="435.00" transform="matrix(1.69, 0.00, -0.00, -1.69, 150.0, 908.0)"></image></g></g><text xml:space="preserve" font-family="HelveticaNeue-Light" font-size="84.0" fill="#000000" transform="matrix(1.00, 0.00, -0.00, -1.00, 605.0, 877.0)">R</text><text xml:space="preserve" font-family="HelveticaNeue-Light" font-size="84.0" fill="#000000" transform="matrix(1.00, 0.00, -0.00, -1.00, 661.0, 877.0)">o</text><text xml:space="preserve" font-family="HelveticaNeue-Light" font-size="84.0" fill="#000000" transform="matrix(1.00, 0.00, -0.00, -1.00, 707.7, 877.0)">b</text><text xml:space="preserve" font-family="HelveticaNeue-Light" font-size="84.0" fill="#000000" transform="matrix(1.00, 0.00, -0.00, -1.00, 755.9, 877.0)">o</text><text xml:space="preserve" font-family="HelveticaNeue-Light" font-size="84.0" fill="#000000" transform="matrix(1.00, 0.00, -0.00, -1.00, 802.7, 877.0)">t</text><text xml:space="preserve" font-family="HelveticaNeue-Light" font-size="84.0" fill="#000000" transform="matrix(1.00, 0.00, -0.00, -1.00, 827.5, 877.0)">i</text><text xml:space="preserve" font-family="HelveticaNeue-Light" font-size="84.0" fill="#000000" transform="matrix(1.00, 0.00, -0.00, -1.00, 843.1, 877.0)">c</text><text xml:space="preserve" font-family="HelveticaNeue-Light" font-size="84.0" fill="#000000" transform="matrix(1.00, 0.00, -0.00, -1.00, 886.7, 877.0)"> </text><text xml:space="preserve" font-family="HelveticaNeue-Light" font-size="84.0" fill="#000000" transform="matrix(1.00, 0.00, -0.00, -1.00, 910.0, 877.0)">R</text><text xml:space="preserve" font-family="HelveticaNeue-Light" font-size="84.0" fill="#000000" transform="matrix(1.00, 0.00, -0.00, -1.00, 966.0, 877.0)">e</text><text xml:space="preserve" font-family="HelveticaNeue-Light" font-size="84.0" fill="#000000" transform="matrix(1.00, 0.00, -0.00, -1.00, 1009.6, 877.0)">s</text><text xml:space="preserve" font-family="HelveticaNeue-Light" font-size="84.0" fill="#000000" transform="matrix(1.00, 0.00, -0.00, -1.00, 1050.0, 877.0)">p</text><text xml:space="preserve" font-family="HelveticaNeue-Light" font-size="84.0" fill="#000000" transform="matrix(1.00, 0.00, -0.00, -1.00, 1098.2, 877.0)">o</text><text xml:space="preserve" font-family="HelveticaNeue-Light" font-size="84.0" fill="#000000" transform="matrix(1.00, 0.00, -0.00, -1.00, 1145.0, 877.0)">n</text><text xml:space="preserve" font-family="HelveticaNeue-Light" font-size="84.0" fill="#000000" transform="matrix(1.00, 0.00, -0.00, -1.00, 1190.1, 877.0)">s</text><text xml:space="preserve" font-family="HelveticaNeue-Light" font-size="84.0" fill="#000000" transform="matrix(1.00, 0.00, -0.00, -1.00, 1230.5, 877.0)">e</text><text xml:space="preserve" font-family="HelveticaNeue-Light" font-size="84.0" fill="#000000" transform="matrix(1.00, 0.00, -0.00, -1.00, 1274.1, 877.0)">s</text><image xlink:href="9DD6D8D44D634C2CC3B6D5496C20C68D.png" width="694.00" height="58.00" transform="matrix(1.97, 0.00, -0.00, -1.97, 276.0, 776.0)"></image></g></svg>