<?xml version="1.0" encoding="UTF-8" standalone="no"?><svg xmlns="http://www.w3.org/2000/svg" xmlns:xlink="http://www.w3.org/1999/xlink" clip-rule="evenodd" stroke-miterlimit="4.00" viewBox="0 0 1920 1080"><desc>SVG generated by Keynote</desc><defs></defs><g transform="matrix(1.00, 0.00, -0.00, -1.00, 0.0, 1080.0)"><path d="M 0.0 1080.0 L 1920.0 1080.0 L 1920.0 0.0 L 0.0 0.0 Z M 0.0 1080.0 " fill="#FEFFFE"></path><text xml:space="preserve" font-family="HelveticaNeue" font-size="80.0" fill="#000000" transform="matrix(1.00, 0.00, -0.00, -1.00, 533.0, 511.0)">L</text><text xml:space="preserve" font-family="HelveticaNeue" font-size="80.0" fill="#000000" transform="matrix(1.00, 0.00, -0.00, -1.00, 577.5, 511.0)">e</text><text xml:space="preserve" font-family="HelveticaNeue" font-size="80.0" fill="#000000" transform="matrix(1.00, 0.00, -0.00, -1.00, 620.4, 511.0)">t</text><text xml:space="preserve" font-family="HelveticaNeue" font-size="80.0" fill="#000000" transform="matrix(1.00, 0.00, -0.00, -1.00, 645.6, 511.0)">’</text><text xml:space="preserve" font-family="HelveticaNeue" font-size="80.0" fill="#000000" transform="matrix(1.00, 0.00, -0.00, -1.00, 662.0, 511.0)">s</text><text xml:space="preserve" font-family="HelveticaNeue" font-size="80.0" fill="#000000" transform="matrix(1.00, 0.00, -0.00, -1.00, 702.0, 511.0)"> </text><text xml:space="preserve" font-family="HelveticaNeue" font-size="80.0" fill="#000000" transform="matrix(1.00, 0.00, -0.00, -1.00, 724.2, 511.0)">m</text><text xml:space="preserve" font-family="HelveticaNeue" font-size="80.0" fill="#000000" transform="matrix(1.00, 0.00, -0.00, -1.00, 792.4, 511.0)">a</text><text xml:space="preserve" font-family="HelveticaNeue" font-size="80.0" fill="#000000" transform="matrix(1.00, 0.00, -0.00, -1.00, 835.4, 511.0)">k</text><text xml:space="preserve" font-family="HelveticaNeue" font-size="80.0" fill="#000000" transform="matrix(1.00, 0.00, -0.00, -1.00, 876.9, 511.0)">e</text><text xml:space="preserve" font-family="HelveticaNeue" font-size="80.0" fill="#000000" transform="matrix(1.00, 0.00, -0.00, -1.00, 919.9, 511.0)"> </text><text xml:space="preserve" font-family="HelveticaNeue" font-size="80.0" fill="#000000" transform="matrix(1.00, 0.00, -0.00, -1.00, 942.1, 511.0)">i</text><text xml:space="preserve" font-family="HelveticaNeue" font-size="80.0" fill="#000000" transform="matrix(1.00, 0.00, -0.00, -1.00, 959.9, 511.0)">t</text><text xml:space="preserve" font-family="HelveticaNeue" font-size="80.0" fill="#000000" transform="matrix(1.00, 0.00, -0.00, -1.00, 985.1, 511.0)"> </text><text xml:space="preserve" font-family="HelveticaNeue" font-size="80.0" fill="#000000" transform="matrix(1.00, 0.00, -0.00, -1.00, 1007.3, 511.0)">s</text><text xml:space="preserve" font-family="HelveticaNeue" font-size="80.0" fill="#000000" transform="matrix(1.00, 0.00, -0.00, -1.00, 1047.3, 511.0)">u</text><text xml:space="preserve" font-family="HelveticaNeue" font-size="80.0" fill="#000000" transform="matrix(1.00, 0.00, -0.00, -1.00, 1091.8, 511.0)">s</text><text xml:space="preserve" font-family="HelveticaNeue" font-size="80.0" fill="#000000" transform="matrix(1.00, 0.00, -0.00, -1.00, 1131.8, 511.0)">t</text><text xml:space="preserve" font-family="HelveticaNeue" font-size="80.0" fill="#000000" transform="matrix(1.00, 0.00, -0.00, -1.00, 1157.0, 511.0)">a</text><text xml:space="preserve" font-family="HelveticaNeue" font-size="80.0" fill="#000000" transform="matrix(1.00, 0.00, -0.00, -1.00, 1200.0, 511.0)">i</text><text xml:space="preserve" font-family="HelveticaNeue" font-size="80.0" fill="#000000" transform="matrix(1.00, 0.00, -0.00, -1.00, 1217.7, 511.0)">n</text><text xml:space="preserve" font-family="HelveticaNeue" font-size="80.0" fill="#000000" transform="matrix(1.00, 0.00, -0.00, -1.00, 1262.2, 511.0)">a</text><text xml:space="preserve" font-family="HelveticaNeue" font-size="80.0" fill="#000000" transform="matrix(1.00, 0.00, -0.00, -1.00, 1305.2, 511.0)">b</text><text xml:space="preserve" font-family="HelveticaNeue" font-size="80.0" fill="#000000" transform="matrix(1.00, 0.00, -0.00, -1.00, 1352.6, 511.0)">l</text><text xml:space="preserve" font-family="HelveticaNeue" font-size="80.0" fill="#000000" transform="matrix(1.00, 0.00, -0.00, -1.00, 1370.4, 511.0)">e</text><text xml:space="preserve" font-family="HelveticaNeue" font-size="80.0" fill="#000000" transform="matrix(1.00, 0.00, -0.00, -1.00, 1413.3, 511.0)">.</text></g></svg>