<?xml version="1.0" encoding="UTF-8" standalone="no"?><svg xmlns="http://www.w3.org/2000/svg" xmlns:xlink="http://www.w3.org/1999/xlink" clip-rule="evenodd" stroke-miterlimit="4.00" viewBox="0 0 716 85"><desc>SVG generated by Keynote</desc><defs></defs><g transform="matrix(1.00, 0.00, -0.00, -1.00, 0.0, 85.0)"><text xml:space="preserve" font-family="HelveticaNeue-Light" font-size="90.0" fill="#000000" transform="matrix(1.00, 0.00, -0.00, -1.00, -5.0, 19.0)">I</text><text xml:space="preserve" font-family="HelveticaNeue-Light" font-size="90.0" fill="#000000" transform="matrix(1.00, 0.00, -0.00, -1.00, 15.0, 19.0)"> </text><text xml:space="preserve" font-family="HelveticaNeue-Light" font-size="90.0" fill="#000000" transform="matrix(1.00, 0.00, -0.00, -1.00, 40.0, 19.0)">a</text><text xml:space="preserve" font-family="HelveticaNeue-Light" font-size="90.0" fill="#000000" transform="matrix(1.00, 0.00, -0.00, -1.00, 86.7, 19.0)">m</text><text xml:space="preserve" font-family="HelveticaNeue-Light" font-size="90.0" fill="#000000" transform="matrix(1.00, 0.00, -0.00, -1.00, 161.7, 19.0)"> </text><text xml:space="preserve" font-family="HelveticaNeue-Light" font-size="90.0" fill="#000000" transform="matrix(1.00, 0.00, -0.00, -1.00, 186.7, 19.0)">i</text><text xml:space="preserve" font-family="HelveticaNeue-Light" font-size="90.0" fill="#000000" transform="matrix(1.00, 0.00, -0.00, -1.00, 203.4, 19.0)">n</text><text xml:space="preserve" font-family="HelveticaNeue-Light" font-size="90.0" fill="#000000" transform="matrix(1.00, 0.00, -0.00, -1.00, 251.7, 19.0)">d</text><text xml:space="preserve" font-family="HelveticaNeue-Light" font-size="90.0" fill="#000000" transform="matrix(1.00, 0.00, -0.00, -1.00, 303.3, 19.0)">i</text><text xml:space="preserve" font-family="HelveticaNeue-Light" font-size="90.0" fill="#000000" transform="matrix(1.00, 0.00, -0.00, -1.00, 320.0, 19.0)">s</text><text xml:space="preserve" font-family="HelveticaNeue-Light" font-size="90.0" fill="#000000" transform="matrix(1.00, 0.00, -0.00, -1.00, 363.3, 19.0)">p</text><text xml:space="preserve" font-family="HelveticaNeue-Light" font-size="90.0" fill="#000000" transform="matrix(1.00, 0.00, -0.00, -1.00, 414.9, 19.0)">e</text><text xml:space="preserve" font-family="HelveticaNeue-Light" font-size="90.0" fill="#000000" transform="matrix(1.00, 0.00, -0.00, -1.00, 461.7, 19.0)">n</text><text xml:space="preserve" font-family="HelveticaNeue-Light" font-size="90.0" fill="#000000" transform="matrix(1.00, 0.00, -0.00, -1.00, 510.0, 19.0)">s</text><text xml:space="preserve" font-family="HelveticaNeue-Light" font-size="90.0" fill="#000000" transform="matrix(1.00, 0.00, -0.00, -1.00, 553.3, 19.0)">a</text><text xml:space="preserve" font-family="HelveticaNeue-Light" font-size="90.0" fill="#000000" transform="matrix(1.00, 0.00, -0.00, -1.00, 600.0, 19.0)">b</text><text xml:space="preserve" font-family="HelveticaNeue-Light" font-size="90.0" fill="#000000" transform="matrix(1.00, 0.00, -0.00, -1.00, 651.6, 19.0)">l</text><text xml:space="preserve" font-family="HelveticaNeue-Light" font-size="90.0" fill="#000000" transform="matrix(1.00, 0.00, -0.00, -1.00, 668.3, 19.0)">e</text></g></svg>