<?xml version="1.0" encoding="UTF-8" standalone="no"?><svg xmlns="http://www.w3.org/2000/svg" xmlns:xlink="http://www.w3.org/1999/xlink" clip-rule="evenodd" stroke-miterlimit="4.00" viewBox="0 0 521 85"><desc>SVG generated by Keynote</desc><defs></defs><g transform="matrix(1.00, 0.00, -0.00, -1.00, 0.0, 85.0)"><text xml:space="preserve" font-family="HelveticaNeue-Light" font-size="90.0" fill="#000000" transform="matrix(1.00, 0.00, -0.00, -1.00, -6.0, 19.0)">I</text><text xml:space="preserve" font-family="HelveticaNeue-Light" font-size="90.0" fill="#000000" transform="matrix(1.00, 0.00, -0.00, -1.00, 14.0, 19.0)"> </text><text xml:space="preserve" font-family="HelveticaNeue-Light" font-size="90.0" fill="#000000" transform="matrix(1.00, 0.00, -0.00, -1.00, 39.0, 19.0)">a</text><text xml:space="preserve" font-family="HelveticaNeue-Light" font-size="90.0" fill="#000000" transform="matrix(1.00, 0.00, -0.00, -1.00, 85.7, 19.0)">m</text><text xml:space="preserve" font-family="HelveticaNeue-Light" font-size="90.0" fill="#000000" transform="matrix(1.00, 0.00, -0.00, -1.00, 160.7, 19.0)"> </text><text xml:space="preserve" font-family="HelveticaNeue-Light" font-size="90.0" fill="#000000" transform="matrix(1.00, 0.00, -0.00, -1.00, 185.7, 19.0)">m</text><text xml:space="preserve" font-family="HelveticaNeue-Light" font-size="90.0" fill="#000000" transform="matrix(1.00, 0.00, -0.00, -1.00, 260.7, 19.0)">y</text><text xml:space="preserve" font-family="HelveticaNeue-Light" font-size="90.0" fill="#000000" transform="matrix(1.00, 0.00, -0.00, -1.00, 302.3, 19.0)"> </text><text xml:space="preserve" font-family="HelveticaNeue-Light" font-size="90.0" fill="#000000" transform="matrix(1.00, 0.00, -0.00, -1.00, 327.4, 19.0)">w</text><text xml:space="preserve" font-family="HelveticaNeue-Light" font-size="90.0" fill="#000000" transform="matrix(1.00, 0.00, -0.00, -1.00, 394.1, 19.0)">o</text><text xml:space="preserve" font-family="HelveticaNeue-Light" font-size="90.0" fill="#000000" transform="matrix(1.00, 0.00, -0.00, -1.00, 444.1, 19.0)">r</text><text xml:space="preserve" font-family="HelveticaNeue-Light" font-size="90.0" fill="#000000" transform="matrix(1.00, 0.00, -0.00, -1.00, 472.4, 19.0)">k</text></g></svg>