<?xml version="1.0" encoding="UTF-8" standalone="no"?><svg xmlns="http://www.w3.org/2000/svg" xmlns:xlink="http://www.w3.org/1999/xlink" clip-rule="evenodd" stroke-miterlimit="4.00" viewBox="0 0 1920 1080"><desc>SVG generated by Keynote</desc><defs></defs><g transform="matrix(1.00, 0.00, -0.00, -1.00, 0.0, 1080.0)"><path d="M 0.0 1080.0 L 1920.0 1080.0 L 1920.0 0.0 L 0.0 0.0 Z M 0.0 1080.0 " fill="#FEFFFE"></path><image xlink:href="0A98C7C48C5A0FE4D9903BBEAAACF422.png" width="826.00" height="540.00" transform="matrix(1.64, 0.00, -0.00, -1.64, 281.0, 916.0)"></image><text xml:space="preserve" font-family="HelveticaNeue-Light" font-size="84.0" fill="#000000" transform="matrix(1.00, 0.00, -0.00, -1.00, 843.0, 952.0)">T</text><text xml:space="preserve" font-family="HelveticaNeue-Light" font-size="84.0" fill="#000000" transform="matrix(1.00, 0.00, -0.00, -1.00, 880.4, 952.0)">w</text><text xml:space="preserve" font-family="HelveticaNeue-Light" font-size="84.0" fill="#000000" transform="matrix(1.00, 0.00, -0.00, -1.00, 942.6, 952.0)">i</text><text xml:space="preserve" font-family="HelveticaNeue-Light" font-size="84.0" fill="#000000" transform="matrix(1.00, 0.00, -0.00, -1.00, 958.2, 952.0)">t</text><text xml:space="preserve" font-family="HelveticaNeue-Light" font-size="84.0" fill="#000000" transform="matrix(1.00, 0.00, -0.00, -1.00, 983.0, 952.0)">t</text><text xml:space="preserve" font-family="HelveticaNeue-Light" font-size="84.0" fill="#000000" transform="matrix(1.00, 0.00, -0.00, -1.00, 1007.9, 952.0)">e</text><text xml:space="preserve" font-family="HelveticaNeue-Light" font-size="84.0" fill="#000000" transform="matrix(1.00, 0.00, -0.00, -1.00, 1051.5, 952.0)">r</text></g></svg>