<?xml version="1.0" encoding="UTF-8" standalone="no"?><svg xmlns="http://www.w3.org/2000/svg" xmlns:xlink="http://www.w3.org/1999/xlink" clip-rule="evenodd" stroke-miterlimit="4.00" viewBox="0 0 1920 1080"><desc>SVG generated by Keynote</desc><defs></defs><g transform="matrix(1.00, 0.00, -0.00, -1.00, 0.0, 1080.0)"><path d="M 0.0 1080.0 L 1920.0 1080.0 L 1920.0 0.0 L 0.0 0.0 Z M 0.0 1080.0 " fill="#FEFFFE"></path><text xml:space="preserve" font-family="HelveticaNeue-Light" font-size="126.0" fill="#000000" transform="matrix(1.00, 0.00, -0.00, -1.00, 624.0, 492.0)">E</text><text xml:space="preserve" font-family="HelveticaNeue-Light" font-size="126.0" fill="#000000" transform="matrix(1.00, 0.00, -0.00, -1.00, 698.7, 492.0)">n</text><text xml:space="preserve" font-family="HelveticaNeue-Light" font-size="126.0" fill="#000000" transform="matrix(1.00, 0.00, -0.00, -1.00, 766.4, 492.0)">t</text><text xml:space="preserve" font-family="HelveticaNeue-Light" font-size="126.0" fill="#000000" transform="matrix(1.00, 0.00, -0.00, -1.00, 803.7, 492.0)">i</text><text xml:space="preserve" font-family="HelveticaNeue-Light" font-size="126.0" fill="#000000" transform="matrix(1.00, 0.00, -0.00, -1.00, 827.0, 492.0)">t</text><text xml:space="preserve" font-family="HelveticaNeue-Light" font-size="126.0" fill="#000000" transform="matrix(1.00, 0.00, -0.00, -1.00, 864.3, 492.0)">l</text><text xml:space="preserve" font-family="HelveticaNeue-Light" font-size="126.0" fill="#000000" transform="matrix(1.00, 0.00, -0.00, -1.00, 887.6, 492.0)">e</text><text xml:space="preserve" font-family="HelveticaNeue-Light" font-size="126.0" fill="#000000" transform="matrix(1.00, 0.00, -0.00, -1.00, 953.0, 492.0)">m</text><text xml:space="preserve" font-family="HelveticaNeue-Light" font-size="126.0" fill="#000000" transform="matrix(1.00, 0.00, -0.00, -1.00, 1057.9, 492.0)">e</text><text xml:space="preserve" font-family="HelveticaNeue-Light" font-size="126.0" fill="#000000" transform="matrix(1.00, 0.00, -0.00, -1.00, 1123.3, 492.0)">n</text><text xml:space="preserve" font-family="HelveticaNeue-Light" font-size="126.0" fill="#000000" transform="matrix(1.00, 0.00, -0.00, -1.00, 1191.0, 492.0)">t</text><text xml:space="preserve" font-family="HelveticaNeue-Light" font-size="126.0" fill="#000000" transform="matrix(1.00, 0.00, -0.00, -1.00, 1228.3, 492.0)">?</text></g></svg>