<?xml version="1.0" encoding="UTF-8" standalone="no"?><svg xmlns="http://www.w3.org/2000/svg" xmlns:xlink="http://www.w3.org/1999/xlink" clip-rule="evenodd" stroke-miterlimit="4.00" viewBox="0 0 1920 1080"><desc>SVG generated by Keynote</desc><defs></defs><g transform="matrix(1.00, 0.00, -0.00, -1.00, 0.0, 1080.0)"><path d="M 0.0 1080.0 L 1920.0 1080.0 L 1920.0 0.0 L 0.0 0.0 Z M 0.0 1080.0 " fill="#FEFFFE"></path><text xml:space="preserve" font-family="HelveticaNeue-Light" font-size="98.0" fill="#000000" transform="matrix(1.00, 0.00, -0.00, -1.00, 505.0, 503.0)">b</text><text xml:space="preserve" font-family="HelveticaNeue-Light" font-size="98.0" fill="#000000" transform="matrix(1.00, 0.00, -0.00, -1.00, 561.3, 503.0)">u</text><text xml:space="preserve" font-family="HelveticaNeue-Light" font-size="98.0" fill="#000000" transform="matrix(1.00, 0.00, -0.00, -1.00, 613.9, 503.0)">t</text><text xml:space="preserve" font-family="HelveticaNeue-Light" font-size="98.0" fill="#000000" transform="matrix(1.00, 0.00, -0.00, -1.00, 642.9, 503.0)"> </text><text xml:space="preserve" font-family="HelveticaNeue-Light" font-size="98.0" fill="#000000" transform="matrix(1.00, 0.00, -0.00, -1.00, 670.1, 503.0)">i</text><text xml:space="preserve" font-family="HelveticaNeue-Light" font-size="98.0" fill="#000000" transform="matrix(1.00, 0.00, -0.00, -1.00, 688.3, 503.0)">t</text><text xml:space="preserve" font-family="HelveticaNeue-Light" font-size="98.0" fill="#000000" transform="matrix(1.00, 0.00, -0.00, -1.00, 717.3, 503.0)"> </text><text xml:space="preserve" font-family="HelveticaNeue-Light" font-size="98.0" fill="#000000" transform="matrix(1.00, 0.00, -0.00, -1.00, 744.5, 503.0)">g</text><text xml:space="preserve" font-family="HelveticaNeue-Light" font-size="98.0" fill="#000000" transform="matrix(1.00, 0.00, -0.00, -1.00, 799.0, 503.0)">o</text><text xml:space="preserve" font-family="HelveticaNeue-Light" font-size="98.0" fill="#000000" transform="matrix(1.00, 0.00, -0.00, -1.00, 853.5, 503.0)">e</text><text xml:space="preserve" font-family="HelveticaNeue-Light" font-size="98.0" fill="#000000" transform="matrix(1.00, 0.00, -0.00, -1.00, 904.4, 503.0)">s</text><text xml:space="preserve" font-family="HelveticaNeue-Light" font-size="98.0" fill="#000000" transform="matrix(1.00, 0.00, -0.00, -1.00, 951.5, 503.0)"> </text><text xml:space="preserve" font-family="HelveticaNeue-Light" font-size="98.0" fill="#000000" transform="matrix(1.00, 0.00, -0.00, -1.00, 978.7, 503.0)">b</text><text xml:space="preserve" font-family="HelveticaNeue-Light" font-size="98.0" fill="#000000" transform="matrix(1.00, 0.00, -0.00, -1.00, 1035.0, 503.0)">o</text><text xml:space="preserve" font-family="HelveticaNeue-Light" font-size="98.0" fill="#000000" transform="matrix(1.00, 0.00, -0.00, -1.00, 1089.5, 503.0)">t</text><text xml:space="preserve" font-family="HelveticaNeue-Light" font-size="98.0" fill="#000000" transform="matrix(1.00, 0.00, -0.00, -1.00, 1118.5, 503.0)">h</text><text xml:space="preserve" font-family="HelveticaNeue-Light" font-size="98.0" fill="#000000" transform="matrix(1.00, 0.00, -0.00, -1.00, 1171.1, 503.0)"> </text><text xml:space="preserve" font-family="HelveticaNeue-Light" font-size="98.0" fill="#000000" transform="matrix(1.00, 0.00, -0.00, -1.00, 1198.3, 503.0)">w</text><text xml:space="preserve" font-family="HelveticaNeue-Light" font-size="98.0" fill="#000000" transform="matrix(1.00, 0.00, -0.00, -1.00, 1271.0, 503.0)">a</text><text xml:space="preserve" font-family="HelveticaNeue-Light" font-size="98.0" fill="#000000" transform="matrix(1.00, 0.00, -0.00, -1.00, 1321.8, 503.0)">y</text><text xml:space="preserve" font-family="HelveticaNeue-Light" font-size="98.0" fill="#000000" transform="matrix(1.00, 0.00, -0.00, -1.00, 1367.2, 503.0)">s</text><text xml:space="preserve" font-family="HelveticaNeue-Light" font-size="50.0" fill="#000000" transform="matrix(1.00, 0.00, -0.00, -1.00, 782.0, 389.0)">(</text><text xml:space="preserve" font-family="HelveticaNeue-Light" font-size="50.0" fill="#000000" transform="matrix(1.00, 0.00, -0.00, -1.00, 794.0, 389.0)">b</text><text xml:space="preserve" font-family="HelveticaNeue-Light" font-size="50.0" fill="#000000" transform="matrix(1.00, 0.00, -0.00, -1.00, 822.8, 389.0)">a</text><text xml:space="preserve" font-family="HelveticaNeue-Light" font-size="50.0" fill="#000000" transform="matrix(1.00, 0.00, -0.00, -1.00, 848.7, 389.0)">c</text><text xml:space="preserve" font-family="HelveticaNeue-Light" font-size="50.0" fill="#000000" transform="matrix(1.00, 0.00, -0.00, -1.00, 874.6, 389.0)">k</text><text xml:space="preserve" font-family="HelveticaNeue-Light" font-size="50.0" fill="#000000" transform="matrix(1.00, 0.00, -0.00, -1.00, 899.6, 389.0)"> </text><text xml:space="preserve" font-family="HelveticaNeue-Light" font-size="50.0" fill="#000000" transform="matrix(1.00, 0.00, -0.00, -1.00, 913.5, 389.0)">t</text><text xml:space="preserve" font-family="HelveticaNeue-Light" font-size="50.0" fill="#000000" transform="matrix(1.00, 0.00, -0.00, -1.00, 928.4, 389.0)">o</text><text xml:space="preserve" font-family="HelveticaNeue-Light" font-size="50.0" fill="#000000" transform="matrix(1.00, 0.00, -0.00, -1.00, 956.2, 389.0)"> </text><text xml:space="preserve" font-family="HelveticaNeue-Light" font-size="50.0" fill="#000000" transform="matrix(1.00, 0.00, -0.00, -1.00, 970.1, 389.0)">t</text><text xml:space="preserve" font-family="HelveticaNeue-Light" font-size="50.0" fill="#000000" transform="matrix(1.00, 0.00, -0.00, -1.00, 984.9, 389.0)">h</text><text xml:space="preserve" font-family="HelveticaNeue-Light" font-size="50.0" fill="#000000" transform="matrix(1.00, 0.00, -0.00, -1.00, 1011.7, 389.0)">e</text><text xml:space="preserve" font-family="HelveticaNeue-Light" font-size="50.0" fill="#000000" transform="matrix(1.00, 0.00, -0.00, -1.00, 1037.7, 389.0)"> </text><text xml:space="preserve" font-family="HelveticaNeue-Light" font-size="50.0" fill="#000000" transform="matrix(1.00, 0.00, -0.00, -1.00, 1051.5, 389.0)">t</text><text xml:space="preserve" font-family="HelveticaNeue-Light" font-size="50.0" fill="#000000" transform="matrix(1.00, 0.00, -0.00, -1.00, 1066.3, 389.0)">i</text><text xml:space="preserve" font-family="HelveticaNeue-Light" font-size="50.0" fill="#000000" transform="matrix(1.00, 0.00, -0.00, -1.00, 1075.6, 389.0)">t</text><text xml:space="preserve" font-family="HelveticaNeue-Light" font-size="50.0" fill="#000000" transform="matrix(1.00, 0.00, -0.00, -1.00, 1090.4, 389.0)">l</text><text xml:space="preserve" font-family="HelveticaNeue-Light" font-size="50.0" fill="#000000" transform="matrix(1.00, 0.00, -0.00, -1.00, 1099.7, 389.0)">e</text><text xml:space="preserve" font-family="HelveticaNeue-Light" font-size="50.0" fill="#000000" transform="matrix(1.00, 0.00, -0.00, -1.00, 1125.6, 389.0)">)</text></g></svg>