<?xml version="1.0" encoding="UTF-8" standalone="no"?><svg xmlns="http://www.w3.org/2000/svg" xmlns:xlink="http://www.w3.org/1999/xlink" clip-rule="evenodd" stroke-miterlimit="4.00" viewBox="0 0 566 50"><desc>SVG generated by Keynote</desc><defs></defs><g transform="matrix(1.00, 0.00, -0.00, -1.00, 0.0, 50.0)"><text xml:space="preserve" font-family="HelveticaNeue-Light" font-size="50.0" fill="#000000" transform="matrix(1.00, 0.00, -0.00, -1.00, -1.0, 12.0)">“</text><text xml:space="preserve" font-family="HelveticaNeue-Light" font-size="50.0" fill="#000000" transform="matrix(1.00, 0.00, -0.00, -1.00, 17.5, 12.0)">I</text><text xml:space="preserve" font-family="HelveticaNeue-Light" font-size="50.0" fill="#000000" transform="matrix(1.00, 0.00, -0.00, -1.00, 28.6, 12.0)">t</text><text xml:space="preserve" font-family="HelveticaNeue-Light" font-size="50.0" fill="#000000" transform="matrix(1.00, 0.00, -0.00, -1.00, 43.4, 12.0)">’</text><text xml:space="preserve" font-family="HelveticaNeue-Light" font-size="50.0" fill="#000000" transform="matrix(1.00, 0.00, -0.00, -1.00, 51.8, 12.0)">s</text><text xml:space="preserve" font-family="HelveticaNeue-Light" font-size="50.0" fill="#000000" transform="matrix(1.00, 0.00, -0.00, -1.00, 75.8, 12.0)"> </text><text xml:space="preserve" font-family="HelveticaNeue-Light" font-size="50.0" fill="#000000" transform="matrix(1.00, 0.00, -0.00, -1.00, 89.7, 12.0)">l</text><text xml:space="preserve" font-family="HelveticaNeue-Light" font-size="50.0" fill="#000000" transform="matrix(1.00, 0.00, -0.00, -1.00, 99.0, 12.0)">e</text><text xml:space="preserve" font-family="HelveticaNeue-Light" font-size="50.0" fill="#000000" transform="matrix(1.00, 0.00, -0.00, -1.00, 124.9, 12.0)">f</text><text xml:space="preserve" font-family="HelveticaNeue-Light" font-size="50.0" fill="#000000" transform="matrix(1.00, 0.00, -0.00, -1.00, 137.9, 12.0)">t</text><text xml:space="preserve" font-family="HelveticaNeue-Light" font-size="50.0" fill="#000000" transform="matrix(1.00, 0.00, -0.00, -1.00, 152.7, 12.0)">-</text><text xml:space="preserve" font-family="HelveticaNeue-Light" font-size="50.0" fill="#000000" transform="matrix(1.00, 0.00, -0.00, -1.00, 171.2, 12.0)">p</text><text xml:space="preserve" font-family="HelveticaNeue-Light" font-size="50.0" fill="#000000" transform="matrix(1.00, 0.00, -0.00, -1.00, 199.9, 12.0)">a</text><text xml:space="preserve" font-family="HelveticaNeue-Light" font-size="50.0" fill="#000000" transform="matrix(1.00, 0.00, -0.00, -1.00, 225.8, 12.0)">d</text><text xml:space="preserve" font-family="HelveticaNeue-Light" font-size="50.0" fill="#000000" transform="matrix(1.00, 0.00, -0.00, -1.00, 254.5, 12.0)"> </text><text xml:space="preserve" font-family="HelveticaNeue-Light" font-size="50.0" fill="#000000" transform="matrix(1.00, 0.00, -0.00, -1.00, 268.4, 12.0)">a</text><text xml:space="preserve" font-family="HelveticaNeue-Light" font-size="50.0" fill="#000000" transform="matrix(1.00, 0.00, -0.00, -1.00, 294.3, 12.0)">l</text><text xml:space="preserve" font-family="HelveticaNeue-Light" font-size="50.0" fill="#000000" transform="matrix(1.00, 0.00, -0.00, -1.00, 303.6, 12.0)">l</text><text xml:space="preserve" font-family="HelveticaNeue-Light" font-size="50.0" fill="#000000" transform="matrix(1.00, 0.00, -0.00, -1.00, 312.8, 12.0)"> </text><text xml:space="preserve" font-family="HelveticaNeue-Light" font-size="50.0" fill="#000000" transform="matrix(1.00, 0.00, -0.00, -1.00, 326.7, 12.0)">o</text><text xml:space="preserve" font-family="HelveticaNeue-Light" font-size="50.0" fill="#000000" transform="matrix(1.00, 0.00, -0.00, -1.00, 354.5, 12.0)">v</text><text xml:space="preserve" font-family="HelveticaNeue-Light" font-size="50.0" fill="#000000" transform="matrix(1.00, 0.00, -0.00, -1.00, 377.7, 12.0)">e</text><text xml:space="preserve" font-family="HelveticaNeue-Light" font-size="50.0" fill="#000000" transform="matrix(1.00, 0.00, -0.00, -1.00, 403.6, 12.0)">r</text><text xml:space="preserve" font-family="HelveticaNeue-Light" font-size="50.0" fill="#000000" transform="matrix(1.00, 0.00, -0.00, -1.00, 419.4, 12.0)"> </text><text xml:space="preserve" font-family="HelveticaNeue-Light" font-size="50.0" fill="#000000" transform="matrix(1.00, 0.00, -0.00, -1.00, 433.3, 12.0)">a</text><text xml:space="preserve" font-family="HelveticaNeue-Light" font-size="50.0" fill="#000000" transform="matrix(1.00, 0.00, -0.00, -1.00, 459.2, 12.0)">g</text><text xml:space="preserve" font-family="HelveticaNeue-Light" font-size="50.0" fill="#000000" transform="matrix(1.00, 0.00, -0.00, -1.00, 487.0, 12.0)">a</text><text xml:space="preserve" font-family="HelveticaNeue-Light" font-size="50.0" fill="#000000" transform="matrix(1.00, 0.00, -0.00, -1.00, 513.0, 12.0)">i</text><text xml:space="preserve" font-family="HelveticaNeue-Light" font-size="50.0" fill="#000000" transform="matrix(1.00, 0.00, -0.00, -1.00, 522.2, 12.0)">n</text><text xml:space="preserve" font-family="HelveticaNeue-Light" font-size="50.0" fill="#000000" transform="matrix(1.00, 0.00, -0.00, -1.00, 549.1, 12.0)">”</text></g></svg>