<?xml version="1.0" encoding="UTF-8" standalone="no"?><svg xmlns="http://www.w3.org/2000/svg" xmlns:xlink="http://www.w3.org/1999/xlink" clip-rule="evenodd" stroke-miterlimit="4.00" viewBox="0 0 1920 1080"><desc>SVG generated by Keynote</desc><defs></defs><g transform="matrix(1.00, 0.00, -0.00, -1.00, 0.0, 1080.0)"><path d="M 0.0 1080.0 L 1920.0 1080.0 L 1920.0 0.0 L 0.0 0.0 Z M 0.0 1080.0 " fill="#FEFFFE"></path><text xml:space="preserve" font-family="HelveticaNeue-Light" font-size="90.0" fill="#000000" transform="matrix(1.00, 0.00, -0.00, -1.00, 532.0, 560.0)">w</text><text xml:space="preserve" font-family="HelveticaNeue-Light" font-size="90.0" fill="#000000" transform="matrix(1.00, 0.00, -0.00, -1.00, 598.7, 560.0)">o</text><text xml:space="preserve" font-family="HelveticaNeue-Light" font-size="90.0" fill="#000000" transform="matrix(1.00, 0.00, -0.00, -1.00, 648.7, 560.0)">u</text><text xml:space="preserve" font-family="HelveticaNeue-Light" font-size="90.0" fill="#000000" transform="matrix(1.00, 0.00, -0.00, -1.00, 697.1, 560.0)">l</text><text xml:space="preserve" font-family="HelveticaNeue-Light" font-size="90.0" fill="#000000" transform="matrix(1.00, 0.00, -0.00, -1.00, 713.7, 560.0)">d</text><text xml:space="preserve" font-family="HelveticaNeue-Light" font-size="90.0" fill="#000000" transform="matrix(1.00, 0.00, -0.00, -1.00, 765.4, 560.0)">-</text><text xml:space="preserve" font-family="HelveticaNeue-Light" font-size="90.0" fill="#000000" transform="matrix(1.00, 0.00, -0.00, -1.00, 798.7, 560.0)">b</text><text xml:space="preserve" font-family="HelveticaNeue-Light" font-size="90.0" fill="#000000" transform="matrix(1.00, 0.00, -0.00, -1.00, 850.3, 560.0)">e</text><text xml:space="preserve" font-family="HelveticaNeue-Light" font-size="90.0" fill="#000000" transform="matrix(1.00, 0.00, -0.00, -1.00, 897.0, 560.0)"> </text><text xml:space="preserve" font-family="HelveticaNeue-Light" font-size="90.0" fill="#000000" transform="matrix(1.00, 0.00, -0.00, -1.00, 922.1, 560.0)">c</text><text xml:space="preserve" font-family="HelveticaNeue-Light" font-size="90.0" fill="#000000" transform="matrix(1.00, 0.00, -0.00, -1.00, 968.8, 560.0)">o</text><text xml:space="preserve" font-family="HelveticaNeue-Light" font-size="90.0" fill="#000000" transform="matrix(1.00, 0.00, -0.00, -1.00, 1018.8, 560.0)">n</text><text xml:space="preserve" font-family="HelveticaNeue-Light" font-size="90.0" fill="#000000" transform="matrix(1.00, 0.00, -0.00, -1.00, 1067.1, 560.0)">t</text><text xml:space="preserve" font-family="HelveticaNeue-Light" font-size="90.0" fill="#000000" transform="matrix(1.00, 0.00, -0.00, -1.00, 1093.8, 560.0)">r</text><text xml:space="preserve" font-family="HelveticaNeue-Light" font-size="90.0" fill="#000000" transform="matrix(1.00, 0.00, -0.00, -1.00, 1122.1, 560.0)">i</text><text xml:space="preserve" font-family="HelveticaNeue-Light" font-size="90.0" fill="#000000" transform="matrix(1.00, 0.00, -0.00, -1.00, 1138.8, 560.0)">b</text><text xml:space="preserve" font-family="HelveticaNeue-Light" font-size="90.0" fill="#000000" transform="matrix(1.00, 0.00, -0.00, -1.00, 1190.4, 560.0)">u</text><text xml:space="preserve" font-family="HelveticaNeue-Light" font-size="90.0" fill="#000000" transform="matrix(1.00, 0.00, -0.00, -1.00, 1238.8, 560.0)">t</text><text xml:space="preserve" font-family="HelveticaNeue-Light" font-size="90.0" fill="#000000" transform="matrix(1.00, 0.00, -0.00, -1.00, 1265.4, 560.0)">o</text><text xml:space="preserve" font-family="HelveticaNeue-Light" font-size="90.0" fill="#000000" transform="matrix(1.00, 0.00, -0.00, -1.00, 1315.4, 560.0)">r</text><text xml:space="preserve" font-family="HelveticaNeue-Light" font-size="90.0" fill="#000000" transform="matrix(1.00, 0.00, -0.00, -1.00, 1343.8, 560.0)">s</text><text xml:space="preserve" font-family="HelveticaNeue-Light" font-size="90.0" fill="#000000" transform="matrix(1.00, 0.00, -0.00, -1.00, 1387.1, 560.0)"> </text><text xml:space="preserve" font-family="HelveticaNeue-Light" font-size="90.0" fill="#000000" transform="matrix(1.00, 0.00, -0.00, -1.00, 537.0, 451.0)">d</text><text xml:space="preserve" font-family="HelveticaNeue-Light" font-size="90.0" fill="#000000" transform="matrix(1.00, 0.00, -0.00, -1.00, 588.7, 451.0)">o</text><text xml:space="preserve" font-family="HelveticaNeue-Light" font-size="90.0" fill="#000000" transform="matrix(1.00, 0.00, -0.00, -1.00, 638.7, 451.0)">n</text><text xml:space="preserve" font-family="HelveticaNeue-Light" font-size="90.0" fill="#000000" transform="matrix(1.00, 0.00, -0.00, -1.00, 687.0, 451.0)">'</text><text xml:space="preserve" font-family="HelveticaNeue-Light" font-size="90.0" fill="#000000" transform="matrix(1.00, 0.00, -0.00, -1.00, 712.0, 451.0)">t</text><text xml:space="preserve" font-family="HelveticaNeue-Light" font-size="90.0" fill="#000000" transform="matrix(1.00, 0.00, -0.00, -1.00, 738.7, 451.0)"> </text><text xml:space="preserve" font-family="HelveticaNeue-Light" font-size="90.0" fill="#000000" transform="matrix(1.00, 0.00, -0.00, -1.00, 763.7, 451.0)">f</text><text xml:space="preserve" font-family="HelveticaNeue-Light" font-size="90.0" fill="#000000" transform="matrix(1.00, 0.00, -0.00, -1.00, 787.0, 451.0)">e</text><text xml:space="preserve" font-family="HelveticaNeue-Light" font-size="90.0" fill="#000000" transform="matrix(1.00, 0.00, -0.00, -1.00, 833.7, 451.0)">e</text><text xml:space="preserve" font-family="HelveticaNeue-Light" font-size="90.0" fill="#000000" transform="matrix(1.00, 0.00, -0.00, -1.00, 880.4, 451.0)">l</text><text xml:space="preserve" font-family="HelveticaNeue-Light" font-size="90.0" fill="#000000" transform="matrix(1.00, 0.00, -0.00, -1.00, 897.1, 451.0)"> </text><text xml:space="preserve" font-family="HelveticaNeue-Light" font-size="90.0" fill="#000000" transform="matrix(1.00, 0.00, -0.00, -1.00, 922.1, 451.0)">e</text><text xml:space="preserve" font-family="HelveticaNeue-Light" font-size="90.0" fill="#000000" transform="matrix(1.00, 0.00, -0.00, -1.00, 968.8, 451.0)">m</text><text xml:space="preserve" font-family="HelveticaNeue-Light" font-size="90.0" fill="#000000" transform="matrix(1.00, 0.00, -0.00, -1.00, 1043.8, 451.0)">p</text><text xml:space="preserve" font-family="HelveticaNeue-Light" font-size="90.0" fill="#000000" transform="matrix(1.00, 0.00, -0.00, -1.00, 1095.4, 451.0)">o</text><text xml:space="preserve" font-family="HelveticaNeue-Light" font-size="90.0" fill="#000000" transform="matrix(1.00, 0.00, -0.00, -1.00, 1145.5, 451.0)">w</text><text xml:space="preserve" font-family="HelveticaNeue-Light" font-size="90.0" fill="#000000" transform="matrix(1.00, 0.00, -0.00, -1.00, 1212.2, 451.0)">e</text><text xml:space="preserve" font-family="HelveticaNeue-Light" font-size="90.0" fill="#000000" transform="matrix(1.00, 0.00, -0.00, -1.00, 1258.9, 451.0)">r</text><text xml:space="preserve" font-family="HelveticaNeue-Light" font-size="90.0" fill="#000000" transform="matrix(1.00, 0.00, -0.00, -1.00, 1285.6, 451.0)">e</text><text xml:space="preserve" font-family="HelveticaNeue-Light" font-size="90.0" fill="#000000" transform="matrix(1.00, 0.00, -0.00, -1.00, 1332.3, 451.0)">d</text></g></svg>