<?xml version="1.0" encoding="UTF-8" standalone="no"?><svg xmlns="http://www.w3.org/2000/svg" xmlns:xlink="http://www.w3.org/1999/xlink" clip-rule="evenodd" stroke-miterlimit="4.00" viewBox="0 0 1920 1080"><desc>SVG generated by Keynote</desc><defs></defs><g transform="matrix(1.00, 0.00, -0.00, -1.00, 0.0, 1080.0)"><path d="M 0.0 1080.0 L 1920.0 1080.0 L 1920.0 0.0 L 0.0 0.0 Z M 0.0 1080.0 " fill="#FEFFFE"></path><text xml:space="preserve" font-family="HelveticaNeue-Light" font-size="80.0" fill="#000000" transform="matrix(1.00, 0.00, -0.00, -1.00, 264.0, 510.0)">B</text><text xml:space="preserve" font-family="HelveticaNeue-Light" font-size="80.0" fill="#000000" transform="matrix(1.00, 0.00, -0.00, -1.00, 317.4, 510.0)">a</text><text xml:space="preserve" font-family="HelveticaNeue-Light" font-size="80.0" fill="#000000" transform="matrix(1.00, 0.00, -0.00, -1.00, 358.9, 510.0)">b</text><text xml:space="preserve" font-family="HelveticaNeue-Light" font-size="80.0" fill="#000000" transform="matrix(1.00, 0.00, -0.00, -1.00, 404.8, 510.0)">e</text><text xml:space="preserve" font-family="HelveticaNeue-Light" font-size="80.0" fill="#000000" transform="matrix(1.00, 0.00, -0.00, -1.00, 446.3, 510.0)">l</text><text xml:space="preserve" font-family="HelveticaNeue-Light" font-size="80.0" fill="#000000" transform="matrix(1.00, 0.00, -0.00, -1.00, 461.1, 510.0)">?</text><text xml:space="preserve" font-family="HelveticaNeue-Light" font-size="70.0" fill="#000000" transform="matrix(1.00, 0.00, -0.00, -1.00, 857.0, 701.0)">a</text><text xml:space="preserve" font-family="HelveticaNeue-Light" font-size="70.0" fill="#000000" transform="matrix(1.00, 0.00, -0.00, -1.00, 893.3, 701.0)"> </text><text xml:space="preserve" font-family="HelveticaNeue-Light" font-size="70.0" fill="#000000" transform="matrix(1.00, 0.00, -0.00, -1.00, 912.8, 701.0)">h</text><text xml:space="preserve" font-family="HelveticaNeue-Light" font-size="70.0" fill="#000000" transform="matrix(1.00, 0.00, -0.00, -1.00, 950.4, 701.0)">a</text><text xml:space="preserve" font-family="HelveticaNeue-Light" font-size="70.0" fill="#000000" transform="matrix(1.00, 0.00, -0.00, -1.00, 986.7, 701.0)">n</text><text xml:space="preserve" font-family="HelveticaNeue-Light" font-size="70.0" fill="#000000" transform="matrix(1.00, 0.00, -0.00, -1.00, 1024.3, 701.0)">d</text><text xml:space="preserve" font-family="HelveticaNeue-Light" font-size="70.0" fill="#000000" transform="matrix(1.00, 0.00, -0.00, -1.00, 1064.5, 701.0)">f</text><text xml:space="preserve" font-family="HelveticaNeue-Light" font-size="70.0" fill="#000000" transform="matrix(1.00, 0.00, -0.00, -1.00, 1082.6, 701.0)">u</text><text xml:space="preserve" font-family="HelveticaNeue-Light" font-size="70.0" fill="#000000" transform="matrix(1.00, 0.00, -0.00, -1.00, 1120.2, 701.0)">l</text><text xml:space="preserve" font-family="HelveticaNeue-Light" font-size="70.0" fill="#000000" transform="matrix(1.00, 0.00, -0.00, -1.00, 1133.2, 701.0)"> </text><text xml:space="preserve" font-family="HelveticaNeue-Light" font-size="70.0" fill="#000000" transform="matrix(1.00, 0.00, -0.00, -1.00, 1152.6, 701.0)">o</text><text xml:space="preserve" font-family="HelveticaNeue-Light" font-size="70.0" fill="#000000" transform="matrix(1.00, 0.00, -0.00, -1.00, 1191.5, 701.0)">f</text><text xml:space="preserve" font-family="HelveticaNeue-Light" font-size="70.0" fill="#000000" transform="matrix(1.00, 0.00, -0.00, -1.00, 1209.7, 701.0)"> </text><text xml:space="preserve" font-family="HelveticaNeue-Light" font-size="70.0" fill="#000000" transform="matrix(1.00, 0.00, -0.00, -1.00, 1229.1, 701.0)">c</text><text xml:space="preserve" font-family="HelveticaNeue-Light" font-size="70.0" fill="#000000" transform="matrix(1.00, 0.00, -0.00, -1.00, 1265.5, 701.0)">o</text><text xml:space="preserve" font-family="HelveticaNeue-Light" font-size="70.0" fill="#000000" transform="matrix(1.00, 0.00, -0.00, -1.00, 1304.4, 701.0)">r</text><text xml:space="preserve" font-family="HelveticaNeue-Light" font-size="70.0" fill="#000000" transform="matrix(1.00, 0.00, -0.00, -1.00, 1325.2, 701.0)">e</text><text xml:space="preserve" font-family="HelveticaNeue-Light" font-size="70.0" fill="#000000" transform="matrix(1.00, 0.00, -0.00, -1.00, 1361.5, 701.0)"> </text><text xml:space="preserve" font-family="HelveticaNeue-Light" font-size="70.0" fill="#000000" transform="matrix(1.00, 0.00, -0.00, -1.00, 1381.0, 701.0)">c</text><text xml:space="preserve" font-family="HelveticaNeue-Light" font-size="70.0" fill="#000000" transform="matrix(1.00, 0.00, -0.00, -1.00, 1417.3, 701.0)">o</text><text xml:space="preserve" font-family="HelveticaNeue-Light" font-size="70.0" fill="#000000" transform="matrix(1.00, 0.00, -0.00, -1.00, 1456.2, 701.0)">n</text><text xml:space="preserve" font-family="HelveticaNeue-Light" font-size="70.0" fill="#000000" transform="matrix(1.00, 0.00, -0.00, -1.00, 1493.8, 701.0)">t</text><text xml:space="preserve" font-family="HelveticaNeue-Light" font-size="70.0" fill="#000000" transform="matrix(1.00, 0.00, -0.00, -1.00, 1514.5, 701.0)">r</text><text xml:space="preserve" font-family="HelveticaNeue-Light" font-size="70.0" fill="#000000" transform="matrix(1.00, 0.00, -0.00, -1.00, 1536.6, 701.0)">i</text><text xml:space="preserve" font-family="HelveticaNeue-Light" font-size="70.0" fill="#000000" transform="matrix(1.00, 0.00, -0.00, -1.00, 1549.5, 701.0)">b</text><text xml:space="preserve" font-family="HelveticaNeue-Light" font-size="70.0" fill="#000000" transform="matrix(1.00, 0.00, -0.00, -1.00, 1589.7, 701.0)">u</text><text xml:space="preserve" font-family="HelveticaNeue-Light" font-size="70.0" fill="#000000" transform="matrix(1.00, 0.00, -0.00, -1.00, 1627.3, 701.0)">t</text><text xml:space="preserve" font-family="HelveticaNeue-Light" font-size="70.0" fill="#000000" transform="matrix(1.00, 0.00, -0.00, -1.00, 1648.0, 701.0)">o</text><text xml:space="preserve" font-family="HelveticaNeue-Light" font-size="70.0" fill="#000000" transform="matrix(1.00, 0.00, -0.00, -1.00, 1686.9, 701.0)">r</text><text xml:space="preserve" font-family="HelveticaNeue-Light" font-size="70.0" fill="#000000" transform="matrix(1.00, 0.00, -0.00, -1.00, 1709.0, 701.0)">s</text><text xml:space="preserve" font-family="HelveticaNeue-Light" font-size="70.0" fill="#000000" transform="matrix(1.00, 0.00, -0.00, -1.00, 1742.6, 701.0)"> </text><text xml:space="preserve" font-family="HelveticaNeue-Light" font-size="70.0" fill="#000000" transform="matrix(1.00, 0.00, -0.00, -1.00, 1037.0, 616.0)">(</text><text xml:space="preserve" font-family="HelveticaNeue-Light" font-size="70.0" fill="#000000" transform="matrix(1.00, 0.00, -0.00, -1.00, 1053.9, 616.0)">m</text><text xml:space="preserve" font-family="HelveticaNeue-Light" font-size="70.0" fill="#000000" transform="matrix(1.00, 0.00, -0.00, -1.00, 1112.2, 616.0)">o</text><text xml:space="preserve" font-family="HelveticaNeue-Light" font-size="70.0" fill="#000000" transform="matrix(1.00, 0.00, -0.00, -1.00, 1151.1, 616.0)">s</text><text xml:space="preserve" font-family="HelveticaNeue-Light" font-size="70.0" fill="#000000" transform="matrix(1.00, 0.00, -0.00, -1.00, 1184.8, 616.0)">t</text><text xml:space="preserve" font-family="HelveticaNeue-Light" font-size="70.0" fill="#000000" transform="matrix(1.00, 0.00, -0.00, -1.00, 1205.5, 616.0)">l</text><text xml:space="preserve" font-family="HelveticaNeue-Light" font-size="70.0" fill="#000000" transform="matrix(1.00, 0.00, -0.00, -1.00, 1218.4, 616.0)">y</text><text xml:space="preserve" font-family="HelveticaNeue-Light" font-size="70.0" fill="#000000" transform="matrix(1.00, 0.00, -0.00, -1.00, 1250.8, 616.0)"> </text><text xml:space="preserve" font-family="HelveticaNeue-Light" font-size="70.0" fill="#000000" transform="matrix(1.00, 0.00, -0.00, -1.00, 1270.3, 616.0)">v</text><text xml:space="preserve" font-family="HelveticaNeue-Light" font-size="70.0" fill="#000000" transform="matrix(1.00, 0.00, -0.00, -1.00, 1302.7, 616.0)">o</text><text xml:space="preserve" font-family="HelveticaNeue-Light" font-size="70.0" fill="#000000" transform="matrix(1.00, 0.00, -0.00, -1.00, 1341.6, 616.0)">l</text><text xml:space="preserve" font-family="HelveticaNeue-Light" font-size="70.0" fill="#000000" transform="matrix(1.00, 0.00, -0.00, -1.00, 1354.6, 616.0)">u</text><text xml:space="preserve" font-family="HelveticaNeue-Light" font-size="70.0" fill="#000000" transform="matrix(1.00, 0.00, -0.00, -1.00, 1392.2, 616.0)">n</text><text xml:space="preserve" font-family="HelveticaNeue-Light" font-size="70.0" fill="#000000" transform="matrix(1.00, 0.00, -0.00, -1.00, 1429.8, 616.0)">t</text><text xml:space="preserve" font-family="HelveticaNeue-Light" font-size="70.0" fill="#000000" transform="matrix(1.00, 0.00, -0.00, -1.00, 1450.5, 616.0)">e</text><text xml:space="preserve" font-family="HelveticaNeue-Light" font-size="70.0" fill="#000000" transform="matrix(1.00, 0.00, -0.00, -1.00, 1486.8, 616.0)">e</text><text xml:space="preserve" font-family="HelveticaNeue-Light" font-size="70.0" fill="#000000" transform="matrix(1.00, 0.00, -0.00, -1.00, 1523.2, 616.0)">r</text><text xml:space="preserve" font-family="HelveticaNeue-Light" font-size="70.0" fill="#000000" transform="matrix(1.00, 0.00, -0.00, -1.00, 1545.2, 616.0)">)</text><text xml:space="preserve" font-family="HelveticaNeue-Light" font-size="50.0" fill="#000000" transform="matrix(1.00, 0.00, -0.00, -1.00, 1008.0, 458.0)">J</text><text xml:space="preserve" font-family="HelveticaNeue-Light" font-size="50.0" fill="#000000" transform="matrix(1.00, 0.00, -0.00, -1.00, 1033.0, 458.0)">u</text><text xml:space="preserve" font-family="HelveticaNeue-Light" font-size="50.0" fill="#000000" transform="matrix(1.00, 0.00, -0.00, -1.00, 1059.8, 458.0)">s</text><text xml:space="preserve" font-family="HelveticaNeue-Light" font-size="50.0" fill="#000000" transform="matrix(1.00, 0.00, -0.00, -1.00, 1083.9, 458.0)">t</text><text xml:space="preserve" font-family="HelveticaNeue-Light" font-size="50.0" fill="#000000" transform="matrix(1.00, 0.00, -0.00, -1.00, 1098.7, 458.0)">i</text><text xml:space="preserve" font-family="HelveticaNeue-Light" font-size="50.0" fill="#000000" transform="matrix(1.00, 0.00, -0.00, -1.00, 1108.0, 458.0)">n</text><text xml:space="preserve" font-family="HelveticaNeue-Light" font-size="50.0" fill="#000000" transform="matrix(1.00, 0.00, -0.00, -1.00, 1134.8, 458.0)">:</text><text xml:space="preserve" font-family="HelveticaNeue-Light" font-size="50.0" fill="#000000" transform="matrix(1.00, 0.00, -0.00, -1.00, 1148.7, 458.0)"> </text><text xml:space="preserve" font-family="HelveticaNeue-Light" font-size="50.0" fill="#000000" transform="matrix(1.00, 0.00, -0.00, -1.00, 1162.6, 458.0)">2</text><text xml:space="preserve" font-family="HelveticaNeue-Light" font-size="50.0" fill="#000000" transform="matrix(1.00, 0.00, -0.00, -1.00, 1190.4, 458.0)">0</text><text xml:space="preserve" font-family="HelveticaNeue-Light" font-size="50.0" fill="#000000" transform="matrix(1.00, 0.00, -0.00, -1.00, 1218.2, 458.0)">%</text><text xml:space="preserve" font-family="HelveticaNeue-Light" font-size="50.0" fill="#000000" transform="matrix(1.00, 0.00, -0.00, -1.00, 1262.7, 458.0)"> </text><text xml:space="preserve" font-family="HelveticaNeue-Light" font-size="50.0" fill="#000000" transform="matrix(1.00, 0.00, -0.00, -1.00, 1276.5, 458.0)">t</text><text xml:space="preserve" font-family="HelveticaNeue-Light" font-size="50.0" fill="#000000" transform="matrix(1.00, 0.00, -0.00, -1.00, 1291.3, 458.0)">i</text><text xml:space="preserve" font-family="HelveticaNeue-Light" font-size="50.0" fill="#000000" transform="matrix(1.00, 0.00, -0.00, -1.00, 1300.6, 458.0)">m</text><text xml:space="preserve" font-family="HelveticaNeue-Light" font-size="50.0" fill="#000000" transform="matrix(1.00, 0.00, -0.00, -1.00, 1342.2, 458.0)">e</text><text xml:space="preserve" font-family="HelveticaNeue-Light" font-size="50.0" fill="#000000" transform="matrix(1.00, 0.00, -0.00, -1.00, 1368.2, 458.0)"> </text><text xml:space="preserve" font-family="HelveticaNeue-Light" font-size="50.0" fill="#000000" transform="matrix(1.00, 0.00, -0.00, -1.00, 1382.1, 458.0)">a</text><text xml:space="preserve" font-family="HelveticaNeue-Light" font-size="50.0" fill="#000000" transform="matrix(1.00, 0.00, -0.00, -1.00, 1408.0, 458.0)">t</text><text xml:space="preserve" font-family="HelveticaNeue-Light" font-size="50.0" fill="#000000" transform="matrix(1.00, 0.00, -0.00, -1.00, 1422.8, 458.0)"> </text><text xml:space="preserve" font-family="HelveticaNeue-Light" font-size="50.0" fill="#000000" transform="matrix(1.00, 0.00, -0.00, -1.00, 1436.8, 458.0)">G</text><text xml:space="preserve" font-family="HelveticaNeue-Light" font-size="50.0" fill="#000000" transform="matrix(1.00, 0.00, -0.00, -1.00, 1473.8, 458.0)">o</text><text xml:space="preserve" font-family="HelveticaNeue-Light" font-size="50.0" fill="#000000" transform="matrix(1.00, 0.00, -0.00, -1.00, 1501.6, 458.0)">o</text><text xml:space="preserve" font-family="HelveticaNeue-Light" font-size="50.0" fill="#000000" transform="matrix(1.00, 0.00, -0.00, -1.00, 1529.4, 458.0)">g</text><text xml:space="preserve" font-family="HelveticaNeue-Light" font-size="50.0" fill="#000000" transform="matrix(1.00, 0.00, -0.00, -1.00, 1557.2, 458.0)">l</text><text xml:space="preserve" font-family="HelveticaNeue-Light" font-size="50.0" fill="#000000" transform="matrix(1.00, 0.00, -0.00, -1.00, 1566.4, 458.0)">e</text><text xml:space="preserve" font-family="HelveticaNeue-Light" font-size="50.0" fill="#000000" transform="matrix(1.00, 0.00, -0.00, -1.00, 990.0, 360.0)">H</text><text xml:space="preserve" font-family="HelveticaNeue-Light" font-size="50.0" fill="#000000" transform="matrix(1.00, 0.00, -0.00, -1.00, 1025.2, 360.0)">e</text><text xml:space="preserve" font-family="HelveticaNeue-Light" font-size="50.0" fill="#000000" transform="matrix(1.00, 0.00, -0.00, -1.00, 1051.2, 360.0)">n</text><text xml:space="preserve" font-family="HelveticaNeue-Light" font-size="50.0" fill="#000000" transform="matrix(1.00, 0.00, -0.00, -1.00, 1078.0, 360.0)">r</text><text xml:space="preserve" font-family="HelveticaNeue-Light" font-size="50.0" fill="#000000" transform="matrix(1.00, 0.00, -0.00, -1.00, 1093.8, 360.0)">y</text><text xml:space="preserve" font-family="HelveticaNeue-Light" font-size="50.0" fill="#000000" transform="matrix(1.00, 0.00, -0.00, -1.00, 1116.9, 360.0)">:</text><text xml:space="preserve" font-family="HelveticaNeue-Light" font-size="50.0" fill="#000000" transform="matrix(1.00, 0.00, -0.00, -1.00, 1130.8, 360.0)"> </text><text xml:space="preserve" font-family="HelveticaNeue-Light" font-size="50.0" fill="#000000" transform="matrix(1.00, 0.00, -0.00, -1.00, 1144.7, 360.0)">5</text><text xml:space="preserve" font-family="HelveticaNeue-Light" font-size="50.0" fill="#000000" transform="matrix(1.00, 0.00, -0.00, -1.00, 1172.5, 360.0)">0</text><text xml:space="preserve" font-family="HelveticaNeue-Light" font-size="50.0" fill="#000000" transform="matrix(1.00, 0.00, -0.00, -1.00, 1200.3, 360.0)">%</text><text xml:space="preserve" font-family="HelveticaNeue-Light" font-size="50.0" fill="#000000" transform="matrix(1.00, 0.00, -0.00, -1.00, 1244.8, 360.0)"> </text><text xml:space="preserve" font-family="HelveticaNeue-Light" font-size="50.0" fill="#000000" transform="matrix(1.00, 0.00, -0.00, -1.00, 1258.7, 360.0)">t</text><text xml:space="preserve" font-family="HelveticaNeue-Light" font-size="50.0" fill="#000000" transform="matrix(1.00, 0.00, -0.00, -1.00, 1273.5, 360.0)">i</text><text xml:space="preserve" font-family="HelveticaNeue-Light" font-size="50.0" fill="#000000" transform="matrix(1.00, 0.00, -0.00, -1.00, 1282.7, 360.0)">m</text><text xml:space="preserve" font-family="HelveticaNeue-Light" font-size="50.0" fill="#000000" transform="matrix(1.00, 0.00, -0.00, -1.00, 1324.3, 360.0)">e</text><text xml:space="preserve" font-family="HelveticaNeue-Light" font-size="50.0" fill="#000000" transform="matrix(1.00, 0.00, -0.00, -1.00, 1350.3, 360.0)"> </text><text xml:space="preserve" font-family="HelveticaNeue-Light" font-size="50.0" fill="#000000" transform="matrix(1.00, 0.00, -0.00, -1.00, 1364.2, 360.0)">a</text><text xml:space="preserve" font-family="HelveticaNeue-Light" font-size="50.0" fill="#000000" transform="matrix(1.00, 0.00, -0.00, -1.00, 1390.2, 360.0)">t</text><text xml:space="preserve" font-family="HelveticaNeue-Light" font-size="50.0" fill="#000000" transform="matrix(1.00, 0.00, -0.00, -1.00, 1405.0, 360.0)"> </text><text xml:space="preserve" font-family="HelveticaNeue-Light" font-size="50.0" fill="#000000" transform="matrix(1.00, 0.00, -0.00, -1.00, 1418.8, 360.0)">B</text><text xml:space="preserve" font-family="HelveticaNeue-Light" font-size="50.0" fill="#000000" transform="matrix(1.00, 0.00, -0.00, -1.00, 1452.2, 360.0)">e</text><text xml:space="preserve" font-family="HelveticaNeue-Light" font-size="50.0" fill="#000000" transform="matrix(1.00, 0.00, -0.00, -1.00, 1478.2, 360.0)">h</text><text xml:space="preserve" font-family="HelveticaNeue-Light" font-size="50.0" fill="#000000" transform="matrix(1.00, 0.00, -0.00, -1.00, 1505.0, 360.0)">a</text><text xml:space="preserve" font-family="HelveticaNeue-Light" font-size="50.0" fill="#000000" transform="matrix(1.00, 0.00, -0.00, -1.00, 1531.0, 360.0)">n</text><text xml:space="preserve" font-family="HelveticaNeue-Light" font-size="50.0" fill="#000000" transform="matrix(1.00, 0.00, -0.00, -1.00, 1557.8, 360.0)">c</text><text xml:space="preserve" font-family="HelveticaNeue-Light" font-size="50.0" fill="#000000" transform="matrix(1.00, 0.00, -0.00, -1.00, 1583.8, 360.0)">e</text></g></svg>