<?xml version="1.0" encoding="UTF-8" standalone="no"?><svg xmlns="http://www.w3.org/2000/svg" xmlns:xlink="http://www.w3.org/1999/xlink" clip-rule="evenodd" stroke-miterlimit="4.00" viewBox="0 0 1920 1080"><desc>SVG generated by Keynote</desc><defs></defs><g transform="matrix(1.00, 0.00, -0.00, -1.00, 0.0, 1080.0)"><path d="M 0.0 1080.0 L 1920.0 1080.0 L 1920.0 0.0 L 0.0 0.0 Z M 0.0 1080.0 " fill="#FEFFFE"></path><text xml:space="preserve" font-family="HelveticaNeue" font-size="110.0" fill="#000000" transform="matrix(1.00, 0.00, -0.00, -1.00, 167.0, 576.0)">P</text><text xml:space="preserve" font-family="HelveticaNeue" font-size="110.0" fill="#000000" transform="matrix(1.00, 0.00, -0.00, -1.00, 238.3, 576.0)">e</text><text xml:space="preserve" font-family="HelveticaNeue" font-size="110.0" fill="#000000" transform="matrix(1.00, 0.00, -0.00, -1.00, 297.4, 576.0)">o</text><text xml:space="preserve" font-family="HelveticaNeue" font-size="110.0" fill="#000000" transform="matrix(1.00, 0.00, -0.00, -1.00, 360.5, 576.0)">p</text><text xml:space="preserve" font-family="HelveticaNeue" font-size="110.0" fill="#000000" transform="matrix(1.00, 0.00, -0.00, -1.00, 425.7, 576.0)">l</text><text xml:space="preserve" font-family="HelveticaNeue" font-size="110.0" fill="#000000" transform="matrix(1.00, 0.00, -0.00, -1.00, 450.1, 576.0)">e</text><text xml:space="preserve" font-family="HelveticaNeue" font-size="110.0" fill="#000000" transform="matrix(1.00, 0.00, -0.00, -1.00, 509.2, 576.0)"> </text><text xml:space="preserve" font-family="HelveticaNeue" font-size="110.0" fill="#000000" transform="matrix(1.00, 0.00, -0.00, -1.00, 539.8, 576.0)">r</text><text xml:space="preserve" font-family="HelveticaNeue" font-size="110.0" fill="#000000" transform="matrix(1.00, 0.00, -0.00, -1.00, 574.4, 576.0)">e</text><text xml:space="preserve" font-family="HelveticaNeue" font-size="110.0" fill="#000000" transform="matrix(1.00, 0.00, -0.00, -1.00, 633.5, 576.0)">l</text><text xml:space="preserve" font-family="HelveticaNeue" font-size="110.0" fill="#000000" transform="matrix(1.00, 0.00, -0.00, -1.00, 657.9, 576.0)">a</text><text xml:space="preserve" font-family="HelveticaNeue" font-size="110.0" fill="#000000" transform="matrix(1.00, 0.00, -0.00, -1.00, 717.0, 576.0)">t</text><text xml:space="preserve" font-family="HelveticaNeue" font-size="110.0" fill="#000000" transform="matrix(1.00, 0.00, -0.00, -1.00, 751.6, 576.0)">e</text><text xml:space="preserve" font-family="HelveticaNeue" font-size="110.0" fill="#000000" transform="matrix(1.00, 0.00, -0.00, -1.00, 810.7, 576.0)"> </text><text xml:space="preserve" font-family="HelveticaNeue" font-size="110.0" fill="#000000" transform="matrix(1.00, 0.00, -0.00, -1.00, 841.3, 576.0)">m</text><text xml:space="preserve" font-family="HelveticaNeue" font-size="110.0" fill="#000000" transform="matrix(1.00, 0.00, -0.00, -1.00, 935.1, 576.0)">o</text><text xml:space="preserve" font-family="HelveticaNeue" font-size="110.0" fill="#000000" transform="matrix(1.00, 0.00, -0.00, -1.00, 998.3, 576.0)">r</text><text xml:space="preserve" font-family="HelveticaNeue" font-size="110.0" fill="#000000" transform="matrix(1.00, 0.00, -0.00, -1.00, 1032.9, 576.0)">e</text><text xml:space="preserve" font-family="HelveticaNeue" font-size="110.0" fill="#000000" transform="matrix(1.00, 0.00, -0.00, -1.00, 1092.0, 576.0)"> </text><text xml:space="preserve" font-family="HelveticaNeue" font-size="110.0" fill="#000000" transform="matrix(1.00, 0.00, -0.00, -1.00, 1122.6, 576.0)">t</text><text xml:space="preserve" font-family="HelveticaNeue" font-size="110.0" fill="#000000" transform="matrix(1.00, 0.00, -0.00, -1.00, 1157.2, 576.0)">o</text><text xml:space="preserve" font-family="HelveticaNeue" font-size="110.0" fill="#000000" transform="matrix(1.00, 0.00, -0.00, -1.00, 1220.4, 576.0)"> </text><text xml:space="preserve" font-family="HelveticaNeue" font-size="110.0" fill="#000000" transform="matrix(1.00, 0.00, -0.00, -1.00, 1250.9, 576.0)">y</text><text xml:space="preserve" font-family="HelveticaNeue" font-size="110.0" fill="#000000" transform="matrix(1.00, 0.00, -0.00, -1.00, 1305.9, 576.0)">o</text><text xml:space="preserve" font-family="HelveticaNeue" font-size="110.0" fill="#000000" transform="matrix(1.00, 0.00, -0.00, -1.00, 1369.1, 576.0)">u</text><text xml:space="preserve" font-family="HelveticaNeue" font-size="110.0" fill="#000000" transform="matrix(1.00, 0.00, -0.00, -1.00, 1430.2, 576.0)">r</text><text xml:space="preserve" font-family="HelveticaNeue" font-size="110.0" fill="#000000" transform="matrix(1.00, 0.00, -0.00, -1.00, 1466.9, 576.0)"> </text><text xml:space="preserve" font-family="HelveticaNeue" font-size="110.0" fill="#000000" transform="matrix(1.00, 0.00, -0.00, -1.00, 167.0, 422.0)">w</text><text xml:space="preserve" font-family="HelveticaNeue" font-size="110.0" fill="#000000" transform="matrix(1.00, 0.00, -0.00, -1.00, 250.4, 422.0)">e</text><text xml:space="preserve" font-family="HelveticaNeue" font-size="110.0" fill="#000000" transform="matrix(1.00, 0.00, -0.00, -1.00, 309.4, 422.0)">a</text><text xml:space="preserve" font-family="HelveticaNeue" font-size="110.0" fill="#000000" transform="matrix(1.00, 0.00, -0.00, -1.00, 368.5, 422.0)">k</text><text xml:space="preserve" font-family="HelveticaNeue" font-size="110.0" fill="#000000" transform="matrix(1.00, 0.00, -0.00, -1.00, 425.6, 422.0)">n</text><text xml:space="preserve" font-family="HelveticaNeue" font-size="110.0" fill="#000000" transform="matrix(1.00, 0.00, -0.00, -1.00, 486.8, 422.0)">e</text><text xml:space="preserve" font-family="HelveticaNeue" font-size="110.0" fill="#000000" transform="matrix(1.00, 0.00, -0.00, -1.00, 545.8, 422.0)">s</text><text xml:space="preserve" font-family="HelveticaNeue" font-size="110.0" fill="#000000" transform="matrix(1.00, 0.00, -0.00, -1.00, 600.8, 422.0)">s</text><text xml:space="preserve" font-family="HelveticaNeue" font-size="110.0" fill="#000000" transform="matrix(1.00, 0.00, -0.00, -1.00, 655.8, 422.0)">e</text><text xml:space="preserve" font-family="HelveticaNeue" font-size="110.0" fill="#000000" transform="matrix(1.00, 0.00, -0.00, -1.00, 714.9, 422.0)">s</text><text xml:space="preserve" font-family="HelveticaNeue" font-size="110.0" fill="#000000" transform="matrix(1.00, 0.00, -0.00, -1.00, 769.9, 422.0)"> </text><text xml:space="preserve" font-family="HelveticaNeue" font-size="110.0" fill="#000000" transform="matrix(1.00, 0.00, -0.00, -1.00, 800.5, 422.0)">t</text><text xml:space="preserve" font-family="HelveticaNeue" font-size="110.0" fill="#000000" transform="matrix(1.00, 0.00, -0.00, -1.00, 835.1, 422.0)">h</text><text xml:space="preserve" font-family="HelveticaNeue" font-size="110.0" fill="#000000" transform="matrix(1.00, 0.00, -0.00, -1.00, 896.3, 422.0)">a</text><text xml:space="preserve" font-family="HelveticaNeue" font-size="110.0" fill="#000000" transform="matrix(1.00, 0.00, -0.00, -1.00, 955.4, 422.0)">n</text><text xml:space="preserve" font-family="HelveticaNeue" font-size="110.0" fill="#000000" transform="matrix(1.00, 0.00, -0.00, -1.00, 1016.5, 422.0)"> </text><text xml:space="preserve" font-family="HelveticaNeue" font-size="110.0" fill="#000000" transform="matrix(1.00, 0.00, -0.00, -1.00, 1047.1, 422.0)">y</text><text xml:space="preserve" font-family="HelveticaNeue" font-size="110.0" fill="#000000" transform="matrix(1.00, 0.00, -0.00, -1.00, 1102.1, 422.0)">o</text><text xml:space="preserve" font-family="HelveticaNeue" font-size="110.0" fill="#000000" transform="matrix(1.00, 0.00, -0.00, -1.00, 1165.2, 422.0)">u</text><text xml:space="preserve" font-family="HelveticaNeue" font-size="110.0" fill="#000000" transform="matrix(1.00, 0.00, -0.00, -1.00, 1226.4, 422.0)">r</text><text xml:space="preserve" font-family="HelveticaNeue" font-size="110.0" fill="#000000" transform="matrix(1.00, 0.00, -0.00, -1.00, 1263.0, 422.0)"> </text><text xml:space="preserve" font-family="HelveticaNeue" font-size="110.0" fill="#000000" transform="matrix(1.00, 0.00, -0.00, -1.00, 1293.6, 422.0)">s</text><text xml:space="preserve" font-family="HelveticaNeue" font-size="110.0" fill="#000000" transform="matrix(1.00, 0.00, -0.00, -1.00, 1348.6, 422.0)">t</text><text xml:space="preserve" font-family="HelveticaNeue" font-size="110.0" fill="#000000" transform="matrix(1.00, 0.00, -0.00, -1.00, 1383.3, 422.0)">r</text><text xml:space="preserve" font-family="HelveticaNeue" font-size="110.0" fill="#000000" transform="matrix(1.00, 0.00, -0.00, -1.00, 1417.9, 422.0)">e</text><text xml:space="preserve" font-family="HelveticaNeue" font-size="110.0" fill="#000000" transform="matrix(1.00, 0.00, -0.00, -1.00, 1477.0, 422.0)">n</text><text xml:space="preserve" font-family="HelveticaNeue" font-size="110.0" fill="#000000" transform="matrix(1.00, 0.00, -0.00, -1.00, 1538.2, 422.0)">g</text><text xml:space="preserve" font-family="HelveticaNeue" font-size="110.0" fill="#000000" transform="matrix(1.00, 0.00, -0.00, -1.00, 1601.3, 422.0)">t</text><text xml:space="preserve" font-family="HelveticaNeue" font-size="110.0" fill="#000000" transform="matrix(1.00, 0.00, -0.00, -1.00, 1635.9, 422.0)">h</text><text xml:space="preserve" font-family="HelveticaNeue" font-size="110.0" fill="#000000" transform="matrix(1.00, 0.00, -0.00, -1.00, 1697.1, 422.0)">s</text></g></svg>