<?xml version="1.0" encoding="UTF-8" standalone="no"?><svg xmlns="http://www.w3.org/2000/svg" xmlns:xlink="http://www.w3.org/1999/xlink" clip-rule="evenodd" stroke-miterlimit="4.00" viewBox="0 0 1920 1080"><desc>SVG generated by Keynote</desc><defs></defs><g transform="matrix(1.00, 0.00, -0.00, -1.00, 0.0, 1080.0)"><path d="M 0.0 1080.0 L 1920.0 1080.0 L 1920.0 0.0 L 0.0 0.0 Z M 0.0 1080.0 " fill="#FEFFFE"></path><image xlink:href="../../1B36543A-FBB2-4D71-A378-6C4B7B9A58AD/assets/A40E90136F8C20A299A1C72D220215A8.png" width="960.00" height="292.00" transform="matrix(1.90, 0.00, -0.00, -1.91, 47.0, 798.0)"></image><text xml:space="preserve" font-family="HelveticaNeue-Light" font-size="84.0" fill="#000000" transform="matrix(1.00, 0.00, -0.00, -1.00, 603.0, 952.0)">S</text><text xml:space="preserve" font-family="HelveticaNeue-Light" font-size="84.0" fill="#000000" transform="matrix(1.00, 0.00, -0.00, -1.00, 655.9, 952.0)">l</text><text xml:space="preserve" font-family="HelveticaNeue-Light" font-size="84.0" fill="#000000" transform="matrix(1.00, 0.00, -0.00, -1.00, 671.5, 952.0)">a</text><text xml:space="preserve" font-family="HelveticaNeue-Light" font-size="84.0" fill="#000000" transform="matrix(1.00, 0.00, -0.00, -1.00, 715.1, 952.0)">c</text><text xml:space="preserve" font-family="HelveticaNeue-Light" font-size="84.0" fill="#000000" transform="matrix(1.00, 0.00, -0.00, -1.00, 758.7, 952.0)">k</text><text xml:space="preserve" font-family="HelveticaNeue-Light" font-size="84.0" fill="#000000" transform="matrix(1.00, 0.00, -0.00, -1.00, 800.7, 952.0)">/</text><text xml:space="preserve" font-family="HelveticaNeue-Light" font-size="84.0" fill="#000000" transform="matrix(1.00, 0.00, -0.00, -1.00, 828.6, 952.0)">r</text><text xml:space="preserve" font-family="HelveticaNeue-Light" font-size="84.0" fill="#000000" transform="matrix(1.00, 0.00, -0.00, -1.00, 853.6, 952.0)">e</text><text xml:space="preserve" font-family="HelveticaNeue-Light" font-size="84.0" fill="#000000" transform="matrix(1.00, 0.00, -0.00, -1.00, 897.2, 952.0)">a</text><text xml:space="preserve" font-family="HelveticaNeue-Light" font-size="84.0" fill="#000000" transform="matrix(1.00, 0.00, -0.00, -1.00, 940.8, 952.0)">l</text><text xml:space="preserve" font-family="HelveticaNeue-Light" font-size="84.0" fill="#000000" transform="matrix(1.00, 0.00, -0.00, -1.00, 956.3, 952.0)">-</text><text xml:space="preserve" font-family="HelveticaNeue-Light" font-size="84.0" fill="#000000" transform="matrix(1.00, 0.00, -0.00, -1.00, 987.4, 952.0)">t</text><text xml:space="preserve" font-family="HelveticaNeue-Light" font-size="84.0" fill="#000000" transform="matrix(1.00, 0.00, -0.00, -1.00, 1012.2, 952.0)">i</text><text xml:space="preserve" font-family="HelveticaNeue-Light" font-size="84.0" fill="#000000" transform="matrix(1.00, 0.00, -0.00, -1.00, 1027.8, 952.0)">m</text><text xml:space="preserve" font-family="HelveticaNeue-Light" font-size="84.0" fill="#000000" transform="matrix(1.00, 0.00, -0.00, -1.00, 1097.8, 952.0)">e</text><text xml:space="preserve" font-family="HelveticaNeue-Light" font-size="84.0" fill="#000000" transform="matrix(1.00, 0.00, -0.00, -1.00, 1141.4, 952.0)"> </text><text xml:space="preserve" font-family="HelveticaNeue-Light" font-size="84.0" fill="#000000" transform="matrix(1.00, 0.00, -0.00, -1.00, 1164.7, 952.0)">h</text><text xml:space="preserve" font-family="HelveticaNeue-Light" font-size="84.0" fill="#000000" transform="matrix(1.00, 0.00, -0.00, -1.00, 1209.8, 952.0)">e</text><text xml:space="preserve" font-family="HelveticaNeue-Light" font-size="84.0" fill="#000000" transform="matrix(1.00, 0.00, -0.00, -1.00, 1253.4, 952.0)">l</text><text xml:space="preserve" font-family="HelveticaNeue-Light" font-size="84.0" fill="#000000" transform="matrix(1.00, 0.00, -0.00, -1.00, 1269.0, 952.0)">p</text></g></svg>