<?xml version="1.0" encoding="UTF-8" standalone="no"?><svg xmlns="http://www.w3.org/2000/svg" xmlns:xlink="http://www.w3.org/1999/xlink" clip-rule="evenodd" stroke-miterlimit="4.00" viewBox="0 0 462 244"><desc>SVG generated by Keynote</desc><defs></defs><g transform="matrix(1.00, 0.00, -0.00, -1.00, 0.0, 244.0)"><text xml:space="preserve" font-family="HelveticaNeue" font-size="112.0" fill="#000000" transform="matrix(1.00, 0.00, -0.00, -1.00, 1.0, 161.0)">E</text><text xml:space="preserve" font-family="HelveticaNeue" font-size="112.0" fill="#000000" transform="matrix(1.00, 0.00, -0.00, -1.00, 69.4, 161.0)">n</text><text xml:space="preserve" font-family="HelveticaNeue" font-size="112.0" fill="#000000" transform="matrix(1.00, 0.00, -0.00, -1.00, 131.7, 161.0)">d</text><text xml:space="preserve" font-family="HelveticaNeue" font-size="112.0" fill="#000000" transform="matrix(1.00, 0.00, -0.00, -1.00, 198.1, 161.0)"> </text><text xml:space="preserve" font-family="HelveticaNeue" font-size="112.0" fill="#000000" transform="matrix(1.00, 0.00, -0.00, -1.00, 229.3, 161.0)">o</text><text xml:space="preserve" font-family="HelveticaNeue" font-size="112.0" fill="#000000" transform="matrix(1.00, 0.00, -0.00, -1.00, 293.5, 161.0)">f</text><text xml:space="preserve" font-family="HelveticaNeue" font-size="112.0" fill="#000000" transform="matrix(1.00, 0.00, -0.00, -1.00, 326.7, 161.0)"> </text><text xml:space="preserve" font-family="HelveticaNeue" font-size="112.0" fill="#000000" transform="matrix(1.00, 0.00, -0.00, -1.00, 1.0, 4.0)">t</text><text xml:space="preserve" font-family="HelveticaNeue" font-size="112.0" fill="#000000" transform="matrix(1.00, 0.00, -0.00, -1.00, 36.3, 4.0)">h</text><text xml:space="preserve" font-family="HelveticaNeue" font-size="112.0" fill="#000000" transform="matrix(1.00, 0.00, -0.00, -1.00, 98.6, 4.0)">e</text><text xml:space="preserve" font-family="HelveticaNeue" font-size="112.0" fill="#000000" transform="matrix(1.00, 0.00, -0.00, -1.00, 158.7, 4.0)"> </text><text xml:space="preserve" font-family="HelveticaNeue" font-size="112.0" fill="#000000" transform="matrix(1.00, 0.00, -0.00, -1.00, 189.8, 4.0)">w</text><text xml:space="preserve" font-family="HelveticaNeue" font-size="112.0" fill="#000000" transform="matrix(1.00, 0.00, -0.00, -1.00, 274.7, 4.0)">o</text><text xml:space="preserve" font-family="HelveticaNeue" font-size="112.0" fill="#000000" transform="matrix(1.00, 0.00, -0.00, -1.00, 339.0, 4.0)">r</text><text xml:space="preserve" font-family="HelveticaNeue" font-size="112.0" fill="#000000" transform="matrix(1.00, 0.00, -0.00, -1.00, 376.3, 4.0)">l</text><text xml:space="preserve" font-family="HelveticaNeue" font-size="112.0" fill="#000000" transform="matrix(1.00, 0.00, -0.00, -1.00, 401.2, 4.0)">d</text></g></svg>